<?xml version="1.0" encoding="UTF-8"?>
<svg width="199px" height="200px" viewBox="0 0 199 200" version="1.1" xmlns="http://www.w3.org/2000/svg" xmlns:xlink="http://www.w3.org/1999/xlink">
    <!-- Generator: Sketch 50.2 (55047) - http://www.bohemiancoding.com/sketch -->
    <title>80z_solution</title>
    <desc>Created with Sketch.</desc>
    <defs></defs>
    <g id="Standard-Bowel-Prep" stroke="none" stroke-width="1" fill="none" fill-rule="evenodd">
        <g id="iOS_1day" transform="translate(-107.000000, -1906.000000)">
            <g id="Group-2-Copy-2" transform="translate(4.000000, 1768.000000)">
                <g id="stop_7days-copy" transform="translate(42.000000, 72.000000)">
                    <g id="80z_solution" transform="translate(61.000000, 66.000000)">
                        <g id="Group-51-Copy">
                            <g id="juice">
                                <ellipse id="Oval-4-Copy-5" fill="#4ECDC4" cx="99.469496" cy="100" rx="99.469496" ry="100"></ellipse>
                                <g id="Group-68" transform="translate(31.000000, 48.000000)">
                                    <g id="Group-3">
                                        <g id="Group-50">
                                            <g id="Group-25" transform="translate(0.000000, 0.326566)">
                                                <g id="Group-23" transform="translate(0.000000, 2.565028)" fill="#E7F3F7">
                                                    <path d="M0.0436923909,0.419475619 L2.88948525,42.8000785 C9.03497027,44.121451 15.1459446,44.121451 21.2224083,42.8000785" id="Path-13"></path>
                                                    <path d="M3.24043543,0.32896536 L5.94289895,42.8000785 C12.088384,44.121451 18.1993583,44.121451 24.275822,42.8000785" id="Path-13-Copy" transform="translate(13.758129, 22.060037) scale(-1, 1) translate(-13.758129, -22.060037) "></path>
                                                    <polygon id="Rectangle-6" points="0.857147764 1.71001864 22.683048 1.71001864 20.4550962 24.7528729 3.0542038 24.7528729"></polygon>
                                                </g>
                                                <path d="M0.240277909,3.23659338 L24.0430629,3.42003728 L22.611713,6.6814384 L1.17035451,5.98506524 C0.937396669,5.33650534 0.748059304,4.82862339 0.602342417,4.46141938 C0.45662553,4.09421537 0.33593736,3.68594004 0.240277909,3.23659338 Z" id="Rectangle-7" fill="#E7F3F7"></path>
                                                <ellipse id="Oval-11" stroke="#F1EEE7" fill="#E7F3F7" cx="12.1516329" cy="2.99253262" rx="12.1516329" ry="2.99253262"></ellipse>
                                                <g id="Group-24" transform="translate(2.430327, 7.695084)">
                                                    <g id="Group-23-Copy" transform="translate(0.000000, 2.565028)" fill="#ECDD7B">
                                                        <path d="M0,0 L2.31626632,34.2620496 C7.24260398,35.3198263 12.1412772,35.3198263 17.012286,34.2620496" id="Path-13"></path>
                                                        <path d="M2.43032658,0 L4.7465929,34.2620496 C9.67293055,35.3198263 14.5716038,35.3198263 19.4426126,34.2620496" id="Path-13-Copy" transform="translate(10.936470, 17.527691) scale(-1, 1) translate(-10.936470, -17.527691) "></path>
                                                        <polygon id="Rectangle-6" points="0.810108858 1.71001864 18.6325037 1.71001864 16.8132231 22.2302423 2.60416087 22.2302423"></polygon>
                                                    </g>
                                                    <ellipse id="Oval-11-Copy" fill="#D7C970" cx="9.7213063" cy="2.99253262" rx="9.7213063" ry="2.99253262"></ellipse>
                                                </g>
                                            </g>
                                        </g>
                                    </g>
                                    <g id="Group-3-Copy-5" transform="translate(0.000000, 56.000000)">
                                        <g id="Group-50">
                                            <g id="Group-25" transform="translate(0.000000, 0.326566)">
                                                <g id="Group-23" transform="translate(0.000000, 2.565028)" fill="#E7F3F7">
                                                    <path d="M0.0436923909,0.419475619 L2.88948525,42.8000785 C9.03497027,44.121451 15.1459446,44.121451 21.2224083,42.8000785" id="Path-13"></path>
                                                    <path d="M3.24043543,0.32896536 L5.94289895,42.8000785 C12.088384,44.121451 18.1993583,44.121451 24.275822,42.8000785" id="Path-13-Copy" transform="translate(13.758129, 22.060037) scale(-1, 1) translate(-13.758129, -22.060037) "></path>
                                                    <polygon id="Rectangle-6" points="0.857147764 1.71001864 22.683048 1.71001864 20.4550962 24.7528729 3.0542038 24.7528729"></polygon>
                                                </g>
                                                <path d="M0.240277909,3.23659338 L24.0430629,3.42003728 L22.611713,6.6814384 L1.17035451,5.98506524 C0.937396669,5.33650534 0.748059304,4.82862339 0.602342417,4.46141938 C0.45662553,4.09421537 0.33593736,3.68594004 0.240277909,3.23659338 Z" id="Rectangle-7" fill="#E7F3F7"></path>
                                                <ellipse id="Oval-11" stroke="#F1EEE7" fill="#E7F3F7" cx="12.1516329" cy="2.99253262" rx="12.1516329" ry="2.99253262"></ellipse>
                                                <g id="Group-24" transform="translate(2.430327, 7.695084)">
                                                    <g id="Group-23-Copy" transform="translate(0.000000, 2.565028)" fill="#ECDD7B">
                                                        <path d="M0,0 L2.31626632,34.2620496 C7.24260398,35.3198263 12.1412772,35.3198263 17.012286,34.2620496" id="Path-13"></path>
                                                        <path d="M2.43032658,0 L4.7465929,34.2620496 C9.67293055,35.3198263 14.5716038,35.3198263 19.4426126,34.2620496" id="Path-13-Copy" transform="translate(10.936470, 17.527691) scale(-1, 1) translate(-10.936470, -17.527691) "></path>
                                                        <polygon id="Rectangle-6" points="0.810108858 1.71001864 18.6325037 1.71001864 16.8132231 22.2302423 2.60416087 22.2302423"></polygon>
                                                    </g>
                                                    <ellipse id="Oval-11-Copy" fill="#D7C970" cx="9.7213063" cy="2.99253262" rx="9.7213063" ry="2.99253262"></ellipse>
                                                </g>
                                            </g>
                                        </g>
                                    </g>
                                    <g id="Group-3-Copy-2" transform="translate(37.000000, 0.000000)">
                                        <g id="Group-50">
                                            <g id="Group-25" transform="translate(0.000000, 0.326566)">
                                                <g id="Group-23" transform="translate(0.000000, 2.565028)" fill="#E7F3F7">
                                                    <path d="M0.0436923909,0.419475619 L2.88948525,42.8000785 C9.03497027,44.121451 15.1459446,44.121451 21.2224083,42.8000785" id="Path-13"></path>
                                                    <path d="M3.24043543,0.32896536 L5.94289895,42.8000785 C12.088384,44.121451 18.1993583,44.121451 24.275822,42.8000785" id="Path-13-Copy" transform="translate(13.758129, 22.060037) scale(-1, 1) translate(-13.758129, -22.060037) "></path>
                                                    <polygon id="Rectangle-6" points="0.857147764 1.71001864 22.683048 1.71001864 20.4550962 24.7528729 3.0542038 24.7528729"></polygon>
                                                </g>
                                                <path d="M0.240277909,3.23659338 L24.0430629,3.42003728 L22.611713,6.6814384 L1.17035451,5.98506524 C0.937396669,5.33650534 0.748059304,4.82862339 0.602342417,4.46141938 C0.45662553,4.09421537 0.33593736,3.68594004 0.240277909,3.23659338 Z" id="Rectangle-7" fill="#E7F3F7"></path>
                                                <ellipse id="Oval-11" stroke="#F1EEE7" fill="#E7F3F7" cx="12.1516329" cy="2.99253262" rx="12.1516329" ry="2.99253262"></ellipse>
                                                <g id="Group-24" transform="translate(2.430327, 7.695084)">
                                                    <g id="Group-23-Copy" transform="translate(0.000000, 2.565028)" fill="#ECDD7B">
                                                        <path d="M0,0 L2.31626632,34.2620496 C7.24260398,35.3198263 12.1412772,35.3198263 17.012286,34.2620496" id="Path-13"></path>
                                                        <path d="M2.43032658,0 L4.7465929,34.2620496 C9.67293055,35.3198263 14.5716038,35.3198263 19.4426126,34.2620496" id="Path-13-Copy" transform="translate(10.936470, 17.527691) scale(-1, 1) translate(-10.936470, -17.527691) "></path>
                                                        <polygon id="Rectangle-6" points="0.810108858 1.71001864 18.6325037 1.71001864 16.8132231 22.2302423 2.60416087 22.2302423"></polygon>
                                                    </g>
                                                    <ellipse id="Oval-11-Copy" fill="#D7C970" cx="9.7213063" cy="2.99253262" rx="9.7213063" ry="2.99253262"></ellipse>
                                                </g>
                                            </g>
                                        </g>
                                    </g>
                                    <g id="Group-3-Copy-6" transform="translate(37.000000, 56.000000)">
                                        <g id="Group-50">
                                            <g id="Group-25" transform="translate(0.000000, 0.326566)">
                                                <g id="Group-23" transform="translate(0.000000, 2.565028)" fill="#E7F3F7">
                                                    <path d="M0.0436923909,0.419475619 L2.88948525,42.8000785 C9.03497027,44.121451 15.1459446,44.121451 21.2224083,42.8000785" id="Path-13"></path>
                                                    <path d="M3.24043543,0.32896536 L5.94289895,42.8000785 C12.088384,44.121451 18.1993583,44.121451 24.275822,42.8000785" id="Path-13-Copy" transform="translate(13.758129, 22.060037) scale(-1, 1) translate(-13.758129, -22.060037) "></path>
                                                    <polygon id="Rectangle-6" points="0.857147764 1.71001864 22.683048 1.71001864 20.4550962 24.7528729 3.0542038 24.7528729"></polygon>
                                                </g>
                                                <path d="M0.240277909,3.23659338 L24.0430629,3.42003728 L22.611713,6.6814384 L1.17035451,5.98506524 C0.937396669,5.33650534 0.748059304,4.82862339 0.602342417,4.46141938 C0.45662553,4.09421537 0.33593736,3.68594004 0.240277909,3.23659338 Z" id="Rectangle-7" fill="#E7F3F7"></path>
                                                <ellipse id="Oval-11" stroke="#F1EEE7" fill="#E7F3F7" cx="12.1516329" cy="2.99253262" rx="12.1516329" ry="2.99253262"></ellipse>
                                                <g id="Group-24" transform="translate(2.430327, 7.695084)">
                                                    <g id="Group-23-Copy" transform="translate(0.000000, 2.565028)" fill="#ECDD7B">
                                                        <path d="M0,0 L2.31626632,34.2620496 C7.24260398,35.3198263 12.1412772,35.3198263 17.012286,34.2620496" id="Path-13"></path>
                                                        <path d="M2.43032658,0 L4.7465929,34.2620496 C9.67293055,35.3198263 14.5716038,35.3198263 19.4426126,34.2620496" id="Path-13-Copy" transform="translate(10.936470, 17.527691) scale(-1, 1) translate(-10.936470, -17.527691) "></path>
                                                        <polygon id="Rectangle-6" points="0.810108858 1.71001864 18.6325037 1.71001864 16.8132231 22.2302423 2.60416087 22.2302423"></polygon>
                                                    </g>
                                                    <ellipse id="Oval-11-Copy" fill="#D7C970" cx="9.7213063" cy="2.99253262" rx="9.7213063" ry="2.99253262"></ellipse>
                                                </g>
                                            </g>
                                        </g>
                                    </g>
                                    <g id="Group-3-Copy-3" transform="translate(74.000000, 0.000000)">
                                        <g id="Group-50">
                                            <g id="Group-25" transform="translate(0.000000, 0.326566)">
                                                <g id="Group-23" transform="translate(0.000000, 2.565028)" fill="#E7F3F7">
                                                    <path d="M0.0436923909,0.419475619 L2.88948525,42.8000785 C9.03497027,44.121451 15.1459446,44.121451 21.2224083,42.8000785" id="Path-13"></path>
                                                    <path d="M3.24043543,0.32896536 L5.94289895,42.8000785 C12.088384,44.121451 18.1993583,44.121451 24.275822,42.8000785" id="Path-13-Copy" transform="translate(13.758129, 22.060037) scale(-1, 1) translate(-13.758129, -22.060037) "></path>
                                                    <polygon id="Rectangle-6" points="0.857147764 1.71001864 22.683048 1.71001864 20.4550962 24.7528729 3.0542038 24.7528729"></polygon>
                                                </g>
                                                <path d="M0.240277909,3.23659338 L24.0430629,3.42003728 L22.611713,6.6814384 L1.17035451,5.98506524 C0.937396669,5.33650534 0.748059304,4.82862339 0.602342417,4.46141938 C0.45662553,4.09421537 0.33593736,3.68594004 0.240277909,3.23659338 Z" id="Rectangle-7" fill="#E7F3F7"></path>
                                                <ellipse id="Oval-11" stroke="#F1EEE7" fill="#E7F3F7" cx="12.1516329" cy="2.99253262" rx="12.1516329" ry="2.99253262"></ellipse>
                                                <g id="Group-24" transform="translate(2.430327, 7.695084)">
                                                    <g id="Group-23-Copy" transform="translate(0.000000, 2.565028)" fill="#ECDD7B">
                                                        <path d="M0,0 L2.31626632,34.2620496 C7.24260398,35.3198263 12.1412772,35.3198263 17.012286,34.2620496" id="Path-13"></path>
                                                        <path d="M2.43032658,0 L4.7465929,34.2620496 C9.67293055,35.3198263 14.5716038,35.3198263 19.4426126,34.2620496" id="Path-13-Copy" transform="translate(10.936470, 17.527691) scale(-1, 1) translate(-10.936470, -17.527691) "></path>
                                                        <polygon id="Rectangle-6" points="0.810108858 1.71001864 18.6325037 1.71001864 16.8132231 22.2302423 2.60416087 22.2302423"></polygon>
                                                    </g>
                                                    <ellipse id="Oval-11-Copy" fill="#D7C970" cx="9.7213063" cy="2.99253262" rx="9.7213063" ry="2.99253262"></ellipse>
                                                </g>
                                            </g>
                                        </g>
                                    </g>
                                    <g id="Group-3-Copy-7" transform="translate(74.000000, 56.000000)">
                                        <g id="Group-50">
                                            <g id="Group-25" transform="translate(0.000000, 0.326566)">
                                                <g id="Group-23" transform="translate(0.000000, 2.565028)" fill="#E7F3F7">
                                                    <path d="M0.0436923909,0.419475619 L2.88948525,42.8000785 C9.03497027,44.121451 15.1459446,44.121451 21.2224083,42.8000785" id="Path-13"></path>
                                                    <path d="M3.24043543,0.32896536 L5.94289895,42.8000785 C12.088384,44.121451 18.1993583,44.121451 24.275822,42.8000785" id="Path-13-Copy" transform="translate(13.758129, 22.060037) scale(-1, 1) translate(-13.758129, -22.060037) "></path>
                                                    <polygon id="Rectangle-6" points="0.857147764 1.71001864 22.683048 1.71001864 20.4550962 24.7528729 3.0542038 24.7528729"></polygon>
                                                </g>
                                                <path d="M0.240277909,3.23659338 L24.0430629,3.42003728 L22.611713,6.6814384 L1.17035451,5.98506524 C0.937396669,5.33650534 0.748059304,4.82862339 0.602342417,4.46141938 C0.45662553,4.09421537 0.33593736,3.68594004 0.240277909,3.23659338 Z" id="Rectangle-7" fill="#E7F3F7"></path>
                                                <ellipse id="Oval-11" stroke="#F1EEE7" fill="#E7F3F7" cx="12.1516329" cy="2.99253262" rx="12.1516329" ry="2.99253262"></ellipse>
                                                <g id="Group-24" transform="translate(2.430327, 7.695084)">
                                                    <g id="Group-23-Copy" transform="translate(0.000000, 2.565028)" fill="#ECDD7B">
                                                        <path d="M0,0 L2.31626632,34.2620496 C7.24260398,35.3198263 12.1412772,35.3198263 17.012286,34.2620496" id="Path-13"></path>
                                                        <path d="M2.43032658,0 L4.7465929,34.2620496 C9.67293055,35.3198263 14.5716038,35.3198263 19.4426126,34.2620496" id="Path-13-Copy" transform="translate(10.936470, 17.527691) scale(-1, 1) translate(-10.936470, -17.527691) "></path>
                                                        <polygon id="Rectangle-6" points="0.810108858 1.71001864 18.6325037 1.71001864 16.8132231 22.2302423 2.60416087 22.2302423"></polygon>
                                                    </g>
                                                    <ellipse id="Oval-11-Copy" fill="#D7C970" cx="9.7213063" cy="2.99253262" rx="9.7213063" ry="2.99253262"></ellipse>
                                                </g>
                                            </g>
                                        </g>
                                    </g>
                                    <g id="Group-3-Copy-4" transform="translate(111.000000, 0.000000)">
                                        <g id="Group-50">
                                            <g id="Group-25" transform="translate(0.000000, 0.326566)">
                                                <g id="Group-23" transform="translate(0.000000, 2.565028)" fill="#E7F3F7">
                                                    <path d="M0.0436923909,0.419475619 L2.88948525,42.8000785 C9.03497027,44.121451 15.1459446,44.121451 21.2224083,42.8000785" id="Path-13"></path>
                                                    <path d="M3.24043543,0.32896536 L5.94289895,42.8000785 C12.088384,44.121451 18.1993583,44.121451 24.275822,42.8000785" id="Path-13-Copy" transform="translate(13.758129, 22.060037) scale(-1, 1) translate(-13.758129, -22.060037) "></path>
                                                    <polygon id="Rectangle-6" points="0.857147764 1.71001864 22.683048 1.71001864 20.4550962 24.7528729 3.0542038 24.7528729"></polygon>
                                                </g>
                                                <path d="M0.240277909,3.23659338 L24.0430629,3.42003728 L22.611713,6.6814384 L1.17035451,5.98506524 C0.937396669,5.33650534 0.748059304,4.82862339 0.602342417,4.46141938 C0.45662553,4.09421537 0.33593736,3.68594004 0.240277909,3.23659338 Z" id="Rectangle-7" fill="#E7F3F7"></path>
                                                <ellipse id="Oval-11" stroke="#F1EEE7" fill="#E7F3F7" cx="12.1516329" cy="2.99253262" rx="12.1516329" ry="2.99253262"></ellipse>
                                                <g id="Group-24" transform="translate(2.430327, 7.695084)">
                                                    <g id="Group-23-Copy" transform="translate(0.000000, 2.565028)" fill="#ECDD7B">
                                                        <path d="M0,0 L2.31626632,34.2620496 C7.24260398,35.3198263 12.1412772,35.3198263 17.012286,34.2620496" id="Path-13"></path>
                                                        <path d="M2.43032658,0 L4.7465929,34.2620496 C9.67293055,35.3198263 14.5716038,35.3198263 19.4426126,34.2620496" id="Path-13-Copy" transform="translate(10.936470, 17.527691) scale(-1, 1) translate(-10.936470, -17.527691) "></path>
                                                        <polygon id="Rectangle-6" points="0.810108858 1.71001864 18.6325037 1.71001864 16.8132231 22.2302423 2.60416087 22.2302423"></polygon>
                                                    </g>
                                                    <ellipse id="Oval-11-Copy" fill="#D7C970" cx="9.7213063" cy="2.99253262" rx="9.7213063" ry="2.99253262"></ellipse>
                                                </g>
                                            </g>
                                        </g>
                                    </g>
                                    <g id="Group-3-Copy-8" transform="translate(111.000000, 56.000000)">
                                        <g id="Group-50">
                                            <g id="Group-25" transform="translate(0.000000, 0.326566)">
                                                <g id="Group-23" transform="translate(0.000000, 2.565028)" fill="#E7F3F7">
                                                    <path d="M0.0436923909,0.419475619 L2.88948525,42.8000785 C9.03497027,44.121451 15.1459446,44.121451 21.2224083,42.8000785" id="Path-13"></path>
                                                    <path d="M3.24043543,0.32896536 L5.94289895,42.8000785 C12.088384,44.121451 18.1993583,44.121451 24.275822,42.8000785" id="Path-13-Copy" transform="translate(13.758129, 22.060037) scale(-1, 1) translate(-13.758129, -22.060037) "></path>
                                                    <polygon id="Rectangle-6" points="0.857147764 1.71001864 22.683048 1.71001864 20.4550962 24.7528729 3.0542038 24.7528729"></polygon>
                                                </g>
                                                <path d="M0.240277909,3.23659338 L24.0430629,3.42003728 L22.611713,6.6814384 L1.17035451,5.98506524 C0.937396669,5.33650534 0.748059304,4.82862339 0.602342417,4.46141938 C0.45662553,4.09421537 0.33593736,3.68594004 0.240277909,3.23659338 Z" id="Rectangle-7" fill="#E7F3F7"></path>
                                                <ellipse id="Oval-11" stroke="#F1EEE7" fill="#E7F3F7" cx="12.1516329" cy="2.99253262" rx="12.1516329" ry="2.99253262"></ellipse>
                                                <g id="Group-24" transform="translate(2.430327, 7.695084)">
                                                    <g id="Group-23-Copy" transform="translate(0.000000, 2.565028)" fill="#ECDD7B">
                                                        <path d="M0,0 L2.31626632,34.2620496 C7.24260398,35.3198263 12.1412772,35.3198263 17.012286,34.2620496" id="Path-13"></path>
                                                        <path d="M2.43032658,0 L4.7465929,34.2620496 C9.67293055,35.3198263 14.5716038,35.3198263 19.4426126,34.2620496" id="Path-13-Copy" transform="translate(10.936470, 17.527691) scale(-1, 1) translate(-10.936470, -17.527691) "></path>
                                                        <polygon id="Rectangle-6" points="0.810108858 1.71001864 18.6325037 1.71001864 16.8132231 22.2302423 2.60416087 22.2302423"></polygon>
                                                    </g>
                                                    <ellipse id="Oval-11-Copy" fill="#D7C970" cx="9.7213063" cy="2.99253262" rx="9.7213063" ry="2.99253262"></ellipse>
                                                </g>
                                            </g>
                                        </g>
                                    </g>
                                </g>
                            </g>
                        </g>
                    </g>
                </g>
            </g>
        </g>
    </g>
</svg>