<?xml version="1.0" encoding="UTF-8"?>
<svg width="96px" height="96px" viewBox="0 0 96 96" version="1.1" xmlns="http://www.w3.org/2000/svg" xmlns:xlink="http://www.w3.org/1999/xlink">
    <!-- Generator: Sketch 50.2 (55047) - http://www.bohemiancoding.com/sketch -->
    <title>broccoli</title>
    <desc>Created with Sketch.</desc>
    <defs></defs>
    <g id="Standard-Bowel-Prep" stroke="none" stroke-width="1" fill="none" fill-rule="evenodd">
        <g id="iOS_3days" transform="translate(-47.000000, -281.000000)">
            <g id="stop_7days" transform="translate(46.000000, 215.000000)">
                <g id="broccoli" transform="translate(1.000000, 66.000000)">
                    <circle id="Oval-4" fill="#4ECDC4" cx="48" cy="48" r="48"></circle>
                    <g id="Group-8" transform="translate(16.000000, 17.000000)">
                        <path d="M52.8878391,61.9513505 C55.5044772,61.005602 57.3956201,60.124402 58.5612677,59.3077505 C60.3754673,58.0367242 64.0200541,55.9128243 63.6399436,54.223173 C62.3635533,48.5494166 45.9176296,41.5041145 49.5173557,25.5127524 C50.9233615,19.2667359 47.5835611,22.276212 46.4145613,23.3490321 C45.8637028,23.8545687 45.5429131,24.930562 45.4521923,26.5770121 C45.7306724,34.8569218 45.4437637,39.2531951 44.5914662,39.7658318 C43.3130201,40.5347869 43.3130201,33.9412199 39.4838979,33.9412199 C37.5589992,33.9412199 34.0295916,32.754906 33.9626401,34.3825665 C33.8964078,35.9927443 40.9068687,43.4519556 40.783279,43.6212321 C40.4193861,44.1196433 35.6567871,42.0870729 31.7568067,40.6843805 C26.5322676,38.8052886 29.6860724,52.6038485 31.7568067,48.871383 C33.1372963,46.3830727 40.1809737,50.7430619 52.8878391,61.9513505 Z" id="Path-4" fill="#CBE896"></path>
                        <path d="M48.9181558,25.9935545 C49.7262632,26.497396 50.3457664,26.8067718 50.7766654,26.9216819 C51.1502187,27.0212993 51.6062312,27.0345567 52.144703,26.9614543 L52.1447052,26.9614705 C52.3196915,26.9377145 52.4970535,26.9372387 52.6721648,26.9600555 C55.8572019,27.3750627 57.948911,26.5212475 58.9472921,24.3986099 C60.4873382,21.1243494 60.098962,18.9945463 59.3543362,15.2474685 C58.9924837,13.4265683 58.4019601,10.8523362 56.2024849,9.08103896 C55.4816244,8.50051041 54.2136367,8.21024613 52.3985217,8.21024613 C52.1059634,0.967518065 49.8567269,-1.2724955 45.6508124,1.49020544 C44.6173304,2.16905935 43.2252013,-0.0934666381 42.5559454,0.499079752 C41.3999784,1.52255073 39.8920446,0.0260965316 39.1850491,0.890795619 C36.8858739,3.70282889 35.3143986,0.334153545 32.9785476,0.0276116613 C31.6445851,-0.147448905 29.237126,0.498446609 27.4137191,2.29364568 C26.4126537,3.27922465 24.9675204,2.13560845 23.7688366,1.89065741 C22.1711789,1.56417604 19.3615572,2.48045184 18.426635,3.28674404 C17.0220355,4.49809374 16.1154647,6.67620305 15.7069226,9.82107196 C7.00890536,9.6364298 4.17536453,12.3958799 7.20630013,18.0994221 C7.47858443,18.6118002 5.8696238,17.8327138 5.23871124,18.0994221 C4.45979674,18.4286959 4.31202056,20.6648752 4.05467073,20.8993736 C-1.91476586,26.3387534 -0.757468436,31.6960293 4.05467073,39.3806429 C4.39672813,39.9268821 3.05856067,39.6513403 3.02362831,40.2131339 C2.94830214,41.4245537 3.05856067,43.4431509 4.05467073,44.3598414 C4.85501488,45.0963744 4.08985572,46.0545618 4.05467073,46.8413474 C4.00120185,48.0369861 4.37747919,49.0393084 4.58776255,49.8638128 C5.24237183,52.430484 7.50323312,53.4913176 14.5804219,54.5378999 C15.5551741,54.6820473 17.5573774,57.1373364 18.426635,57.2314973 C22.4927229,57.6719491 25.7160831,56.0081861 28.0967154,52.240208 C30.2328579,52.896978 31.3009291,51.7411883 31.3009291,48.772839 C31.3009291,47.3829193 33.6714101,48.7186634 33.6714101,45.3079141 C33.6714101,43.0340812 33.4404559,41.6056958 32.9785476,41.0227577 C35.4984534,40.4436292 37.1552417,39.53795 37.9489126,38.3057201 C38.6938171,37.1492036 39.1850491,36.6692211 39.1850491,34.532589 C39.1850491,33.9964017 40.0556127,33.873509 40.8684096,32.854137 C41.0690433,32.6025116 41.2709878,31.9736564 41.4742432,30.9675714 C43.7535556,31.1874007 45.3660288,30.9813794 46.3116628,30.3495073 C47.2572969,29.7176353 48.1261279,28.265651 48.9181558,25.9935545 Z" id="Path-5" fill="#499F68"></path>
                    </g>
                </g>
            </g>
        </g>
    </g>
</svg>