<?xml version="1.0" encoding="UTF-8"?>
<svg width="96px" height="96px" viewBox="0 0 96 96" version="1.1" xmlns="http://www.w3.org/2000/svg" xmlns:xlink="http://www.w3.org/1999/xlink">
    <!-- Generator: Sketch 50.2 (55047) - http://www.bohemiancoding.com/sketch -->
    <title>coffee</title>
    <desc>Created with Sketch.</desc>
    <defs></defs>
    <g id="Standard-Bowel-Prep" stroke="none" stroke-width="1" fill="none" fill-rule="evenodd">
        <g id="iOS_3days" transform="translate(-47.000000, -841.000000)">
            <g id="Group-2" transform="translate(3.000000, 615.000000)">
                <g id="stop_7days-copy" transform="translate(43.000000, 160.000000)">
                    <g id="coffee" transform="translate(1.000000, 66.000000)">
                        <ellipse id="Oval-4-Copy-2" fill="#4ECDC4" cx="47.9371065" cy="48" rx="47.9371065" ry="48"></ellipse>
                        <g transform="translate(15.807229, 25.344000)">
                            <g id="Group-21" transform="translate(0.000000, 19.200000)">
                                <ellipse id="Oval-8" fill="#FFFFFF" cx="32.1285141" cy="12.8" rx="32.1285141" ry="12.8"></ellipse>
                                <ellipse id="Oval-8-Copy" fill="#F1EEE7" cx="32.1285141" cy="12.8" rx="30.0217262" ry="9.728"></ellipse>
                            </g>
                            <g id="Group-20" transform="translate(8.353414, 0.000000)">
                                <path d="M4.23984799,5.05768801 C6.83016353,2.13976822 15.3145815,0 25.3815261,0 C37.5066531,0 47.3360107,3.10415907 47.3360107,6.93333333 C47.6989907,9.38609918 43.9825297,18.549427 36.1866277,34.4233169 C35.3591334,36.1082309 33.6576303,37.1877104 31.7807359,37.2185261 L17.8286923,37.4475969 C15.8176657,37.4806148 13.9826207,36.3054321 13.1713726,34.4649988 L2.81130123,10.9616827 C1.88053656,8.85010876 2.52749725,6.44210227 4.23984799,5.057688 Z" id="Combined-Shape" fill="#FFFFFF"></path>
                                <ellipse id="Oval-9" fill="#6A3E37" cx="25.3815261" cy="8.53333333" rx="18.7416332" ry="4.26666667"></ellipse>
                                <path d="M5.72980076,11.7913771 C2.30467431,11.4003858 0.415956043,12.9847263 0.0636459492,16.5443985 C-0.288664145,20.1040707 0.965023911,23.2018401 3.82471012,25.8377068 C7.61066774,28.5960303 9.82719174,30.1665769 10.4742821,30.5493466 C11.0669509,30.8999245 13.5084892,32.9944455 14.4751856,32.0980293 C15.1196499,31.5004185 14.3355222,29.6212376 12.1228025,26.4604866 C8.66317486,25.8540647 6.14503127,24.5880241 4.56837172,22.6623648 C2.2033824,19.7738759 2.59649677,13.6456667 6.35646156,14.2384314 C8.86310475,14.6336079 8.65421782,13.8179231 5.72980076,11.7913771 Z" id="Path-10" fill="#FFFFFF"></path>
                            </g>
                        </g>
                    </g>
                </g>
            </g>
        </g>
    </g>
</svg>