<?xml version="1.0" encoding="UTF-8"?>
<svg width="200px" height="200px" viewBox="0 0 200 200" version="1.1" xmlns="http://www.w3.org/2000/svg" xmlns:xlink="http://www.w3.org/1999/xlink">
    <!-- Generator: Sketch 50.2 (55047) - http://www.bohemiancoding.com/sketch -->
    <title>combo_pizza_pasta_drink_candy</title>
    <desc>Created with Sketch.</desc>
    <defs>
        <polygon id="path-1" points="1.75157895 18.3919402 68.6826712 0 76.6315789 18.3919402 8.63129634 38.5347368"></polygon>
        <filter x="-4.0%" y="-7.8%" width="108.0%" height="115.6%" filterUnits="objectBoundingBox" id="filter-2">
            <feGaussianBlur stdDeviation="1.5" in="SourceAlpha" result="shadowBlurInner1"></feGaussianBlur>
            <feOffset dx="1" dy="-3" in="shadowBlurInner1" result="shadowOffsetInner1"></feOffset>
            <feComposite in="shadowOffsetInner1" in2="SourceAlpha" operator="arithmetic" k2="-1" k3="1" result="shadowInnerInner1"></feComposite>
            <feColorMatrix values="0 0 0 0 0.850980392   0 0 0 0 0.71372549   0 0 0 0 0.8  0 0 0 0.5 0" type="matrix" in="shadowInnerInner1"></feColorMatrix>
        </filter>
    </defs>
    <g id="Standard-Bowel-Prep" stroke="none" stroke-width="1" fill="none" fill-rule="evenodd">
        <g id="iOS_dayof" transform="translate(-109.000000, -857.000000)">
            <g id="stop_7days-copy-2" transform="translate(48.000000, 791.000000)">
                <g id="combo_pizza_pasta_drink_candy" transform="translate(61.000000, 66.000000)">
                    <g id="Group" fill="#4ECDC4">
                        <g id="Group-51">
                            <g id="juice">
                                <ellipse id="Oval-4-Copy-5" cx="99.9693427" cy="100" rx="99.9693427" ry="100"></ellipse>
                            </g>
                        </g>
                    </g>
                    <g id="pizza" transform="translate(37.600000, 40.400000)">
                        <path d="M0,3.31983987 L-3.88578059e-15,55.425409 C1.0607396e-16,55.9776938 0.44771525,56.425409 1,56.425409 C1.26420885,56.425409 1.51768091,56.320849 1.70504732,56.1345693 L39.7040809,18.3559126 C40.4873958,17.5771408 40.4910786,16.3108193 39.7123068,15.5275044 C39.6725249,15.4874905 39.6310676,15.449178 39.588046,15.4126698 C32.5422508,9.43358827 26.9905374,5.77926496 22.9329057,4.44969984 C12.8889645,1.15859921 5.7670039,0.058805079 3.96193909,0.00455896035 C2.73665537,-0.0322634771 1.45955177,0.152123608 0.802671613,0.625094791 C0.296585713,0.989490099 0.0290285082,1.88773846 0,3.31983987 Z" id="Path-18" fill="#F49F0A"></path>
                        <path d="M0,7.16859203 L4.21884749e-15,55.7955468 C4.28648287e-15,56.3478315 0.44771525,56.7955468 1,56.7955468 C1.26420885,56.7955468 1.51768091,56.6909868 1.70504732,56.5047071 L35.2457174,23.1585927 C35.6273232,22.7792002 35.640291,22.1658604 35.2750621,21.7706775 C28.8220898,14.7884694 23.4817579,10.604721 19.2540665,9.21943236 C12.9181198,7.14333122 6.83102814,6.12639316 0.992791328,6.16861819 L0.992791157,6.16859455 C0.443330097,6.17256853 -6.72913327e-17,6.6191166 0,7.16859203 Z" id="Path-18" fill="#F6B036"></path>
                        <g id="Group-27" transform="translate(0.000000, 34.157662)">
                            <path d="M0,10.1083662 L0,2.22634517 C1.13128683,0.866023012 2.83656803,0 4.74411974,0 C8.15025622,0 10.9114754,2.76121919 10.9114754,6.16735567 C10.9114754,9.57349215 8.15025622,12.3347113 4.74411974,12.3347113 C2.83656803,12.3347113 1.13128683,11.4686883 0,10.1083662 Z" id="Combined-Shape" fill="#D62839"></path>
                            <path d="M0.564744968,5.567198 C0.167576622,3.12083127 1.08008502,1.8976479 3.30227016,1.8976479 C4.64073198,1.8976479 2.90067528,3.13757171 2.24742952,3.46439509 C1.90543916,3.63549524 1.34454431,4.33642954 0.564744968,5.567198 Z" id="Path-19" fill="#DD4F5D"></path>
                        </g>
                        <path d="M22.4972782,35.4707881 C21.2113164,34.3405053 20.3997149,32.6834216 20.3997149,30.8367783 C20.3997149,27.4306419 23.1609341,24.6694227 26.5670706,24.6694227 C28.536139,24.6694227 30.2896806,25.5922032 31.4188358,27.0289049 L31.1789986,26.7890677 L22.4972782,35.4707881 Z" id="Combined-Shape" fill="#D62839"></path>
                        <path d="M4.92721647,3.54020817 C8.11825827,3.01448705 10.2732379,2.75362094 11.3921553,2.75760985 C12.5073135,2.76158536 14.5306407,3.03554555 17.462137,3.57949041 L17.4621395,3.57947684 C18.3779421,3.74940579 19.068729,4.50807659 19.1523206,5.43575251 L19.1523206,5.43575251 C19.208995,6.06470931 18.7450684,6.62052322 18.1161116,6.67719762 C18.0005817,6.68760786 17.8841402,6.68037792 17.7707855,6.65575604 C14.6434774,5.97650087 12.4922038,5.64191997 11.3169586,5.65204171 C10.1433019,5.66214976 7.91732046,6.03347564 4.63901427,6.76601934 L4.63901653,6.76602943 C3.97908691,6.91349194 3.32456627,6.49805528 3.17710376,5.83812567 C3.15069645,5.71994673 3.14196692,5.59850407 3.15120022,5.47776322 L3.15120022,5.47776322 C3.22598613,4.49981176 3.9594514,3.699622 4.92721253,3.54018427 Z" id="Rectangle-9" fill="#F6B036" transform="translate(11.152321, 4.776655) rotate(13.000000) translate(-11.152321, -4.776655) "></path>
                        <g id="Group-33" transform="translate(0.948824, 11.385887)">
                            <circle id="Oval-12" fill="#D62839" cx="6.16735567" cy="6.16735567" r="6.16735567"></circle>
                            <path d="M1.88724975,6.40281759 C1.34134904,3.04033075 2.59557533,1.35908733 5.64992863,1.35908733 C7.48962019,1.35908733 5.09794372,3.06334018 4.20006924,3.51255301 C3.73000967,3.74772708 2.95906984,4.7111486 1.88724975,6.40281759 Z" id="Path-19" fill="#DD4F5D"></path>
                        </g>
                    </g>
                    <g id="Group-25" transform="translate(37.600000, 118.800000)">
                        <g id="Group-23" transform="translate(0.000000, 2.264562)" fill="#EEFAF9">
                            <path d="M0.0407122729,0.370338441 L2.69240272,37.7864974 C8.4187239,38.9530848 14.1128883,38.9530848 19.7748958,37.7864974" id="Path-13"></path>
                            <path d="M3.01941571,0.290430512 L5.53755285,37.7864974 C11.263874,38.9530848 16.9580384,38.9530848 22.6200459,37.7864974" id="Path-13-Copy" transform="translate(12.819731, 19.475934) scale(-1, 1) translate(-12.819731, -19.475934) "></path>
                            <polygon id="Rectangle-6" points="0.798684461 1.50970786 21.13591 1.50970786 19.0599196 21.8533329 2.84588634 21.8533329"></polygon>
                        </g>
                        <path d="M0.223889323,2.85746034 L22.4031626,3.01941571 L21.0694405,5.89877783 L1.09052838,5.2839775 C0.873459846,4.7113896 0.697036575,4.2630007 0.56125857,3.9388108 C0.425480565,3.6146209 0.313024149,3.25417075 0.223889323,2.85746034 Z" id="Rectangle-7" fill="#EEFAF9"></path>
                        <ellipse id="Oval-11" stroke="#F1EEE7" fill="#F1FAFA" cx="11.3228089" cy="2.64198875" rx="11.3228089" ry="2.64198875"></ellipse>
                        <g id="Group-24" transform="translate(2.264562, 6.793685)">
                            <g id="Group-23-Copy" transform="translate(0.000000, 2.264562)" fill="#F49F0A">
                                <path d="M0,0 L2.15828122,30.2486091 C6.74860916,31.1824784 11.3131596,31.1824784 15.8519325,30.2486091" id="Path-13"></path>
                                <path d="M2.26456179,0 L4.42284301,30.2486091 C9.01317095,31.1824784 13.5777214,31.1824784 18.1164943,30.2486091" id="Path-13-Copy" transform="translate(10.190528, 15.474506) scale(-1, 1) translate(-10.190528, -15.474506) "></path>
                                <polygon id="Rectangle-6" points="0.754853929 1.50970786 17.3616404 1.50970786 15.666447 19.6262021 2.4265394 19.6262021"></polygon>
                            </g>
                            <ellipse id="Oval-11-Copy" fill="#F6B036" cx="9.05824714" cy="2.64198875" rx="9.05824714" ry="2.64198875"></ellipse>
                        </g>
                    </g>
                    <g id="Group-84" transform="translate(79.200000, 82.800000)">
                        <rect id="Rectangle-26" fill="#ECE8DF" transform="translate(7.331148, 32.052459) rotate(34.000000) translate(-7.331148, -32.052459) " x="5.4557377" y="22.1639344" width="3.75081967" height="19.7770492" rx="1.87540984"></rect>
                        <g id="Group-83" transform="translate(6.137705, 0.000000)">
                            <ellipse id="Oval-24" fill="#D62839" cx="13.6393443" cy="14.1508197" rx="13.6393443" ry="14.1508197"></ellipse>
                            <path d="M4.05510405,3.05963669 C1.35170135,4.98804094 7.88433392e-17,6.82914777 0,8.58295718 C0,11.2136713 23.2252457,24.9412948 23.2252457,24.9412948 C23.2252457,24.9412948 27.0522655,21.3039711 27.0522655,19.5514028 C27.0522655,18.383024 19.386545,12.8857687 4.05510405,3.05963669 Z" id="Path-33" fill="#DD4F5D"></path>
                        </g>
                    </g>
                    <g id="Group-44" transform="translate(108.000000, 50.400000)">
                        <g id="Group-41" fill="#FFFFFF">
                            <ellipse id="Oval-13" cx="36.3527027" cy="12.9928814" rx="36.3527027" ry="12.9297297"></ellipse>
                            <path d="M37.7626751,36.8 C54.6984123,36.8 72.7109403,18.9074585 72.7109403,12.8651648 C72.7109403,6.82287111 54.6984123,14.9189189 37.7626751,14.9189189 C20.8269379,14.9189189 0.494594595,7.28918744 0.494594595,13.3314811 C0.494594595,19.3737748 20.8269379,36.8 37.7626751,36.8 Z" id="Oval-14"></path>
                        </g>
                        <ellipse id="Oval-19" fill="#F1EEE7" cx="37.2" cy="13.4" rx="33.2" ry="11.4"></ellipse>
                        <ellipse id="Oval-18" fill="#BDAD86" cx="37" cy="14.8" rx="29" ry="10"></ellipse>
                        <g id="Group-42" transform="translate(12.000000, 2.400000)">
                            <g id="Group-34" stroke-width="3">
                                <ellipse id="Oval-15" stroke="#FFE66D" cx="25.2077838" cy="12.1175676" rx="25.2077838" ry="12.1175676"></ellipse>
                                <ellipse id="Oval-15-Copy-2" stroke="#FFE66D" cx="25.9491892" cy="11.622973" rx="20.0179459" ry="9.64459459"></ellipse>
                                <ellipse id="Oval-15-Copy" stroke="#FFEA87" cx="25.4549189" cy="12.3648649" rx="22.4892973" ry="10.8810811"></ellipse>
                                <ellipse id="Oval-15-Copy-3" stroke="#FFEA87" cx="25.7020541" cy="11.622973" rx="16.8051892" ry="8.16081081"></ellipse>
                            </g>
                            <g id="Group-40" transform="translate(5.531243, 0.000000)">
                                <ellipse id="Oval-16" fill="#F49F0A" cx="7.56691892" cy="16.3216216" rx="2.22421622" ry="4.45135135"></ellipse>
                                <ellipse id="Oval-16-Copy" fill="#F49F0A" transform="translate(6.604544, 11.610968) rotate(46.000000) translate(-6.604544, -11.610968) " cx="6.60454383" cy="11.6109684" rx="2.90224502" ry="4.45135135"></ellipse>
                                <ellipse id="Oval-16-Copy-2" fill="#F49F0A" transform="translate(5.145005, 8.155348) rotate(46.000000) translate(-5.145005, -8.155348) " cx="5.14500491" cy="8.15534773" rx="2.22421622" ry="4.45135135"></ellipse>
                                <ellipse id="Oval-16-Copy-3" fill="#F49F0A" transform="translate(21.084406, 16.793199) rotate(145.000000) translate(-21.084406, -16.793199) " cx="21.0844062" cy="16.793199" rx="2.22421622" ry="4.45135135"></ellipse>
                                <ellipse id="Oval-16-Copy-5" fill="#F49F0A" transform="translate(27.509920, 15.804010) rotate(145.000000) translate(-27.509920, -15.804010) " cx="27.5099197" cy="15.8040098" rx="2.22421622" ry="4.45135135"></ellipse>
                                <ellipse id="Oval-16-Copy-6" fill="#F49F0A" transform="translate(34.830910, 11.179541) rotate(145.000000) translate(-34.830910, -11.179541) " cx="34.83091" cy="11.1795411" rx="3.00124358" ry="4.90315369"></ellipse>
                                <ellipse id="Oval-16-Copy-4" fill="#F49F0A" transform="translate(14.658893, 16.298604) rotate(145.000000) translate(-14.658893, -16.298604) " cx="14.6588927" cy="16.2986044" rx="2.22421622" ry="4.45135135"></ellipse>
                                <ellipse id="Oval-16-Copy-7" fill="#D62839" transform="translate(15.539904, 10.775471) rotate(145.000000) translate(-15.539904, -10.775471) " cx="15.5399044" cy="10.7754712" rx="2.22421622" ry="2.53915886"></ellipse>
                                <ellipse id="Oval-16-Copy-8" fill="#D62839" transform="translate(20.976877, 9.786282) rotate(145.000000) translate(-20.976877, -9.786282) " cx="20.9768774" cy="9.78628202" rx="2.22421622" ry="2.53915886"></ellipse>
                                <ellipse id="Oval-16-Copy-9" fill="#D62839" transform="translate(10.102931, 3.851147) rotate(145.000000) translate(-10.102931, -3.851147) " cx="10.1029314" cy="3.85114688" rx="2.22421622" ry="2.53915886"></ellipse>
                                <ellipse id="Oval-16-Copy-28" fill="#D62839" transform="translate(11.091472, 6.818714) rotate(145.000000) translate(-11.091472, -6.818714) " cx="11.091472" cy="6.81871445" rx="2.22421622" ry="2.53915886"></ellipse>
                                <ellipse id="Oval-16-Copy-24" fill="#D62839" transform="translate(11.044018, 9.714462) rotate(145.000000) translate(-11.044018, -9.714462) " cx="11.0440179" cy="9.71446216" rx="1.52113957" ry="1.73652857"></ellipse>
                                <ellipse id="Oval-16-Copy-25" fill="#D62839" transform="translate(11.044018, 13.671219) rotate(145.000000) translate(-11.044018, -13.671219) " cx="11.0440179" cy="13.6712189" rx="1.52113957" ry="1.73652857"></ellipse>
                                <ellipse id="Oval-16-Copy-26" fill="#D62839" transform="translate(8.078396, 9.714462) rotate(145.000000) translate(-8.078396, -9.714462) " cx="8.0783963" cy="9.71446216" rx="1.52113957" ry="1.73652857"></ellipse>
                                <ellipse id="Oval-16-Copy-27" fill="#D62839" transform="translate(17.963802, 14.660408) rotate(145.000000) translate(-17.963802, -14.660408) " cx="17.9638017" cy="14.6604081" rx="1.52113957" ry="1.73652857"></ellipse>
                                <ellipse id="Oval-16-Copy-10" fill="#D62839" transform="translate(15.045634, 3.356552) rotate(145.000000) translate(-15.045634, -3.356552) " cx="15.0456341" cy="3.35655229" rx="2.22421622" ry="2.53915886"></ellipse>
                                <ellipse id="Oval-16-Copy-14" fill="#D62839" transform="translate(14.551364, 6.324120) rotate(145.000000) translate(-14.551364, -6.324120) " cx="14.5513639" cy="6.32411986" rx="2.22421622" ry="2.53915886"></ellipse>
                                <ellipse id="Oval-16-Copy-11" fill="#D62839" transform="translate(24.687616, 8.536181) rotate(145.000000) translate(-24.687616, -8.536181) " cx="24.6876156" cy="8.53618134" rx="1.72358082" ry="1.96763492"></ellipse>
                                <ellipse id="Oval-16-Copy-15" fill="#D62839" transform="translate(21.227724, 4.579425) rotate(145.000000) translate(-21.227724, -4.579425) " cx="21.2277237" cy="4.57942459" rx="1.72358082" ry="1.96763492"></ellipse>
                                <ellipse id="Oval-16-Copy-12" fill="#D62839" transform="translate(29.136048, 11.009154) rotate(145.000000) translate(-29.136048, -11.009154) " cx="29.136048" cy="11.0091543" rx="1.72358082" ry="1.96763492"></ellipse>
                                <ellipse id="Oval-16-Copy-23" fill="#D62839" transform="translate(23.699075, 12.987533) rotate(145.000000) translate(-23.699075, -12.987533) " cx="23.6990751" cy="12.9875327" rx="1.72358082" ry="1.96763492"></ellipse>
                                <ellipse id="Oval-16-Copy-16" fill="#D62839" transform="translate(26.170426, 4.579425) rotate(145.000000) translate(-26.170426, -4.579425) " cx="26.1704264" cy="4.57942459" rx="1.72358082" ry="1.96763492"></ellipse>
                                <ellipse id="Oval-16-Copy-18" fill="#D62839" transform="translate(24.193345, 5.568614) rotate(145.000000) translate(-24.193345, -5.568614) " cx="24.1933453" cy="5.56861377" rx="1.72358082" ry="1.96763492"></ellipse>
                                <ellipse id="Oval-16-Copy-20" fill="#D62839" transform="translate(22.710535, 2.601046) rotate(145.000000) translate(-22.710535, -2.601046) " cx="22.7105345" cy="2.60104621" rx="1.72358082" ry="1.96763492"></ellipse>
                                <ellipse id="Oval-16-Copy-19" fill="#D62839" transform="translate(18.756372, 2.601046) rotate(145.000000) translate(-18.756372, -2.601046) " cx="18.7563724" cy="2.60104621" rx="1.72358082" ry="1.96763492"></ellipse>
                                <ellipse id="Oval-16-Copy-17" fill="#D62839" transform="translate(29.136048, 7.052398) rotate(145.000000) translate(-29.136048, -7.052398) " cx="29.136048" cy="7.05239756" rx="1.72358082" ry="1.96763492"></ellipse>
                                <ellipse id="Oval-16-Copy-21" fill="#D62839" transform="translate(30.124589, 4.084830) rotate(145.000000) translate(-30.124589, -4.084830) " cx="30.1245886" cy="4.08482999" rx="1.72358082" ry="1.96763492"></ellipse>
                                <ellipse id="Oval-16-Copy-22" fill="#D62839" transform="translate(32.101670, 6.557803) rotate(145.000000) translate(-32.101670, -6.557803) " cx="32.1016697" cy="6.55780296" rx="1.72358082" ry="1.96763492"></ellipse>
                                <ellipse id="Oval-16-Copy-13" fill="#D62839" transform="translate(18.262102, 7.052398) rotate(145.000000) translate(-18.262102, -7.052398) " cx="18.2621021" cy="7.05239756" rx="1.72358082" ry="1.96763492"></ellipse>
                            </g>
                        </g>
                    </g>
                    <g id="Group-82" transform="translate(104.000000, 118.800000)">
                        <g id="Path-29">
                            <use fill="#EEC8E0" fill-rule="evenodd" xlink:href="#path-1"></use>
                            <use fill="black" fill-opacity="1" filter="url(#filter-2)" xlink:href="#path-1"></use>
                        </g>
                        <g id="Group-81" transform="translate(6.568421, 3.065263)" stroke="#D9B6CC">
                            <path d="M0.64066271,15.0784508 C-0.213554237,18.066189 -0.213554237,19.9194925 0.64066271,20.6383613 C1.92198813,21.7166646 3.48325208,23.8796585 3.48325208,25.8632255 C3.48325208,27.8467925 3.82000689,30.7135578 5.99027032,31.6176602" id="Path-30"></path>
                            <path d="M8.63224166,13.2690367 C7.77802471,16.2567749 7.77802471,18.1100784 8.63224166,18.8289472 C9.91356708,19.9072505 11.474831,22.0702444 11.474831,24.0538114 C11.474831,26.0373784 11.8115858,28.9041437 13.9818493,29.8082461" id="Path-30-Copy"></path>
                            <path d="M14.7796101,11.4596226 C13.9253931,14.4473608 13.9253931,16.3006643 14.7796101,17.0195331 C16.0609355,18.0978364 17.6221995,20.2608303 17.6221995,22.2443973 C17.6221995,24.2279643 17.9589543,27.0947296 20.1292177,27.998832" id="Path-30-Copy-2"></path>
                            <path d="M21.5417153,9.65020854 C20.6874984,12.6379467 20.6874984,14.4912502 21.5417153,15.210119 C22.8230408,16.2884223 24.3843047,18.4514162 24.3843047,20.4349832 C24.3843047,22.4185502 24.7210595,25.2853155 26.891323,26.1894179" id="Path-30-Copy-3"></path>
                            <path d="M27.6890838,8.44393247 C26.8348668,11.4316706 26.8348668,13.2849741 27.6890838,14.0038429 C28.9704092,15.0821462 30.5316731,17.2451401 30.5316731,19.2287071 C30.5316731,21.2122741 30.8684279,24.0790394 33.0386914,24.9831419" id="Path-30-Copy-4"></path>
                            <path d="M33.8364522,6.63451837 C32.9822352,9.62225651 32.9822352,11.47556 33.8364522,12.1944288 C35.1177776,13.2727321 36.6790416,15.435726 36.6790416,17.419293 C36.6790416,19.40286 37.0157964,22.2696253 39.1860598,23.1737278" id="Path-30-Copy-5"></path>
                            <path d="M39.9838206,4.82510427 C39.1296037,7.81284241 39.1296037,9.6661459 39.9838206,10.3850147 C41.265146,11.463318 42.82641,13.6263119 42.82641,15.6098789 C42.82641,17.5934459 43.1631648,20.4602112 45.3334282,21.3643137" id="Path-30-Copy-6"></path>
                            <path d="M46.131189,3.01569017 C45.2769721,6.00342831 45.2769721,7.8567318 46.131189,8.57560064 C47.4125144,9.6539039 48.9737784,11.8168978 48.9737784,13.8004648 C48.9737784,15.7840318 49.3105332,18.6507971 51.4807966,19.5548996" id="Path-30-Copy-7"></path>
                            <path d="M52.2785574,1.20627607 C51.4243405,4.19401421 51.4243405,6.0473177 52.2785574,6.76618654 C53.5598829,7.8444898 55.1211468,10.0074837 55.1211468,11.9910507 C55.1211468,13.9746177 55.4579016,16.841383 57.6281651,17.7454855" id="Path-30-Copy-8"></path>
                            <path d="M58.4259259,0 C57.5717089,2.98773814 57.5717089,4.84104163 58.4259259,5.55991047 C59.7072513,6.63821373 61.2685152,8.80120762 61.2685152,10.7847746 C61.2685152,12.7683417 61.6052701,15.635107 63.7755335,16.5392094" id="Path-30-Copy-9"></path>
                        </g>
                        <path d="M2.60063087,20.5810526 C2.60063087,20.5810526 1.73375391,21.1144854 0,22.181351 L8.54554764,41.1621053 L44.6652632,26.152864 L8.54554764,36.5290533 C4.58226979,25.8970529 2.60063087,20.5810526 2.60063087,20.5810526 Z" id="Path-31" fill="#EEC8E0"></path>
                        <polygon id="Path-32" fill="#D9B6CC" points="0 22.3326316 0 23.796568 7.94618424 41.6 41.6 26.8041285 8.97824195 39.5732589"></polygon>
                    </g>
                </g>
            </g>
        </g>
    </g>
</svg>