<?xml version="1.0" encoding="UTF-8"?>
<svg width="96px" height="96px" viewBox="0 0 96 96" version="1.1" xmlns="http://www.w3.org/2000/svg" xmlns:xlink="http://www.w3.org/1999/xlink">
    <!-- Generator: Sketch 50.2 (55047) - http://www.bohemiancoding.com/sketch -->
    <title>juice_pulp</title>
    <desc>Created with Sketch.</desc>
    <defs></defs>
    <g id="Standard-Bowel-Prep" stroke="none" stroke-width="1" fill="none" fill-rule="evenodd">
        <g id="iOS_3days" transform="translate(-157.000000, -1380.000000)">
            <g id="stop_7days-copy-2" transform="translate(44.000000, 1314.000000)">
                <g id="juice_pulp" transform="translate(113.000000, 66.000000)">
                    <ellipse id="Oval-4-Copy-5" fill="#4ECDC4" cx="47.7453581" cy="48" rx="47.7453581" ry="48"></ellipse>
                    <g id="Group-25" transform="translate(30.000000, 16.000000)">
                        <g id="Group-23" transform="translate(0.000000, 3.490909)" fill="#EEFAF9">
                            <path d="M0.0627595345,0.570890951 L4.15044235,58.249339 C12.9777867,60.0476785 21.75556,60.0476785 30.4837624,58.249339" id="Path-13"></path>
                            <path d="M4.65454545,0.447709805 L8.5363507,58.249339 C17.363695,60.0476785 26.1414684,60.0476785 34.8696708,58.249339" id="Path-13-Copy" transform="translate(19.762108, 30.022902) scale(-1, 1) translate(-19.762108, -30.022902) "></path>
                            <polygon id="Rectangle-6" points="1.23120282 2.32727273 32.5818182 2.32727273 29.3815992 33.6877532 4.38704326 33.6877532"></polygon>
                        </g>
                        <path d="M0.345134002,4.40488502 L34.5353368,4.65454545 L32.4793528,9.0931929 L1.68109144,8.14545455 C1.34647195,7.26278828 1.07450869,6.57157955 0.865201673,6.07182834 C0.655894656,5.57207714 0.482538765,5.01642937 0.345134002,4.40488502 Z" id="Rectangle-7" fill="#EEFAF9"></path>
                        <ellipse id="Oval-11" stroke="#F1EEE7" fill="#F1FAFA" cx="17.4545455" cy="4.07272727" rx="17.4545455" ry="4.07272727"></ellipse>
                        <g id="Group-24" transform="translate(3.490909, 10.472727)">
                            <g id="Group-23-Copy" transform="translate(0.000000, 3.490909)" fill="#F49F0A">
                                <path d="M0,0 L3.32707351,46.6293944 C10.4032406,48.0689898 17.4396706,48.0689898 24.4363636,46.6293944" id="Path-13"></path>
                                <path d="M3.49090909,0 L6.8179826,46.6293944 C13.8941497,48.0689898 20.9305797,48.0689898 27.9272727,46.6293944" id="Path-13-Copy" transform="translate(15.709091, 23.854545) scale(-1, 1) translate(-15.709091, -23.854545) "></path>
                                <polygon id="Rectangle-6" points="1.16363636 2.32727273 26.7636364 2.32727273 24.1504307 30.2545455 3.74060381 30.2545455"></polygon>
                            </g>
                            <ellipse id="Oval-11-Copy" fill="#F6B036" cx="13.9636364" cy="4.07272727" rx="13.9636364" ry="4.07272727"></ellipse>
                        </g>
                        <path d="M8,31.7037166 C10.3304572,28.0598619 12.4283742,26.5331114 14.2937513,27.1234649 C17.0918168,28.0089951 15.8754141,31.2104119 14.6790921,31.7037166 C13.881544,32.0325864 11.65518,32.0325864 8,31.7037166 Z" id="Path-17" fill="#F6B748"></path>
                        <path d="M9,42.7037166 C11.3304572,39.0598619 13.4283742,37.5331114 15.2937513,38.1234649 C18.0918168,39.0089951 16.8754141,42.2104119 15.6790921,42.7037166 C14.881544,43.0325864 12.65518,43.0325864 9,42.7037166 Z" id="Path-17-Copy" fill="#F6B748"></path>
                        <path d="M11,55.7037166 C13.3304572,52.0598619 15.4283742,50.5331114 17.2937513,51.1234649 C20.0918168,52.0089951 18.8754141,55.2104119 17.6790921,55.7037166 C16.881544,56.0325864 14.65518,56.0325864 11,55.7037166 Z" id="Path-17-Copy-4" fill="#F6B748"></path>
                        <path d="M19.6759187,35.64165 C22.0063759,31.9977953 24.104293,30.4710448 25.96967,31.0613983 C28.7677356,31.9469285 27.5513329,35.1483453 26.3550108,35.64165 C25.5574628,35.9705198 23.3310987,35.9705198 19.6759187,35.64165 Z" id="Path-17-Copy-2" fill="#F6B748" transform="translate(23.675919, 33.413118) rotate(-142.000000) translate(-23.675919, -33.413118) "></path>
                        <path d="M17.6759187,26.64165 C20.0063759,22.9977953 22.104293,21.4710448 23.96967,22.0613983 C26.7677356,22.9469285 25.5513329,26.1483453 24.3550108,26.64165 C23.5574628,26.9705198 21.3310987,26.9705198 17.6759187,26.64165 Z" id="Path-17-Copy-5" fill="#F6B748" transform="translate(21.675919, 24.413118) rotate(-142.000000) translate(-21.675919, -24.413118) "></path>
                        <path d="M19.6759187,48.64165 C22.0063759,44.9977953 24.104293,43.4710448 25.96967,44.0613983 C28.7677356,44.9469285 27.5513329,48.1483453 26.3550108,48.64165 C25.5574628,48.9705198 23.3310987,48.9705198 19.6759187,48.64165 Z" id="Path-17-Copy-3" fill="#F6B748" transform="translate(23.675919, 46.413118) rotate(-142.000000) translate(-23.675919, -46.413118) "></path>
                    </g>
                </g>
            </g>
        </g>
    </g>
</svg>