<?xml version="1.0" encoding="UTF-8"?>
<svg width="96px" height="96px" viewBox="0 0 96 96" version="1.1" xmlns="http://www.w3.org/2000/svg" xmlns:xlink="http://www.w3.org/1999/xlink">
    <!-- Generator: Sketch 50.2 (55047) - http://www.bohemiancoding.com/sketch -->
    <title>meat</title>
    <desc>Created with Sketch.</desc>
    <defs></defs>
    <g id="Standard-Bowel-Prep" stroke="none" stroke-width="1" fill="none" fill-rule="evenodd">
        <g id="iOS_1day" transform="translate(-271.000000, -281.000000)">
            <g id="stop_7days" transform="translate(46.000000, 215.000000)">
                <g id="meat" transform="translate(225.000000, 66.000000)">
                    <ellipse id="Oval-4-Copy-9" fill="#4ECDC4" cx="47.7453581" cy="48" rx="47.7453581" ry="48"></ellipse>
                    <g id="Group-47" transform="translate(15.000000, 27.000000)">
                        <g id="Group-46">
                            <path d="M0.134909428,32.9374708 C3.54496001,40.413348 15.4915012,43.0858098 35.9745331,40.9548562 C56.457565,38.8239026 66.4346198,34.3182015 65.9056977,27.4377529 L65.9056977,10.1221377 C63.5263854,21.1048583 56.3510225,27.9193521 44.3796088,30.565619 C26.4224884,34.5350193 0.134909428,30.8690666 0.134909428,25.5475563 C0.134909428,21.9998827 0.134909428,24.4631875 0.134909428,32.9374708 Z" id="Path-20" fill="#D93B4B"></path>
                            <path d="M6.95283231,17.1059613 C13.7008798,14.640353 18.3787582,15.5165544 21.1760462,13.7546105 C23.9733343,11.9926666 28.5445436,8.44890129 30.3315443,5.77100102 C31.530914,3.97369209 40.9923566,-1.14330436 52.5029529,1.21904762 C57.323851,2.20845407 57.323851,2.20845407 62.2570652,5.77100102 C67.384215,9.4735996 64.6278945,17.8423677 59.6901754,22.9961004 C55.7272688,27.1323749 49.8774644,30.1574287 45.8425051,30.7210998 C36.3659618,32.044943 46.3144437,32.0326621 20.0625704,32.709819 C-6.18930288,33.386976 0.204784796,19.5715696 6.95283231,17.1059613 Z" id="Path-21" stroke="#FFF1B2" stroke-width="2" fill="#E1626F"></path>
                            <g id="Group-45" transform="translate(5.876190, 8.533333)" fill="#E7F3F7">
                                <path d="M5.88025625,9.75238095 C-1.74043423,12.4332814 -1.95393178,15.8984008 5.23976362,20.1477392 C7.60418143,21.5444083 5.237402,19.5537742 3.15108886,14.5607915 C2.61846796,13.2861185 3.52819042,11.683315 5.88025625,9.75238095 Z" id="Path-22"></path>
                                <path d="M24.0214483,1.97681818 C21.269921,4.78656319 19.8941574,6.66694235 19.8941574,7.61795565 C19.8941574,9.04447559 18.3640061,11.1790049 20.7826234,14.4625984 C23.2012407,17.746192 17.7546538,20.2952466 15.3542756,19.310887 C13.7540235,18.6546473 13.2615674,19.2259554 13.8769073,21.0248112 C21.7449671,21.8667583 26.2622802,21.8667583 27.4288467,21.0248112 C28.5954132,20.1828642 30.5751863,19.6115561 33.3681661,19.310887 C34.5376803,17.9129233 34.0546201,17.2139414 31.9189854,17.2139414 C28.7155334,17.2139414 28.8083871,19.0265226 27.4288467,18.1095925 C26.0493063,17.1926624 20.520367,14.0944999 21.8849845,11.3055733 C23.249602,8.51664663 22.7202886,3.7200355 24.5098459,3.7200355 C25.7028842,3.7200355 25.5400849,3.13896306 24.0214483,1.97681818 Z" id="Path-23"></path>
                                <path d="M38.0088177,8.2661087 C37.466129,10.0186743 37.2625675,11.2219199 37.3981332,11.8758457 C37.6687035,13.1809909 39.2539604,13.9649814 39.2539604,14.8499247 C39.2539604,17.1749654 41.2806149,17.9824597 41.2806149,17.9824597 C41.2806149,17.9824597 42.2530097,15.1939395 45.2781326,14.8499247 C48.3032554,14.50591 54.3920231,9.58044995 54.3920231,6.91111325 C54.3920231,4.24177655 53.8553013,0.162085518 51.6764098,0.162085518 C49.4975183,0.162085518 50.5095481,0.467424421 51.092979,1.65893813 C51.6764098,2.85045184 53.5746144,5.81604512 51.6764098,5.81604512 C49.7782052,5.81604512 47.7191138,4.02855831 47.1028136,4.02855831 C46.4865134,4.02855831 45.2789975,5.55611781 47.1028136,6.91111325 C48.9266297,8.2661087 49.7866255,9.43745119 48.7784881,10.1207875 C48.1895653,10.5199717 47.4576874,10.6641286 46.3075993,11.581155 C45.488929,12.2339243 44.2480252,13.9374574 43.6459102,13.4261632 C42.1979291,12.1965902 39.2539604,14.0900374 39.2539604,11.581155 C39.2539604,9.90856673 38.8389128,8.8035513 38.0088177,8.2661087 Z" id="Path-24"></path>
                            </g>
                            <ellipse id="Oval-17" fill="#FFF1B2" transform="translate(44.435107, 10.081889) rotate(-15.000000) translate(-44.435107, -10.081889) " cx="44.4351074" cy="10.0818886" rx="7.45934289" ry="3.3906104"></ellipse>
                        </g>
                    </g>
                </g>
            </g>
        </g>
    </g>
</svg>