<?xml version="1.0" encoding="UTF-8"?>
<svg width="96px" height="96px" viewBox="0 0 96 96" version="1.1" xmlns="http://www.w3.org/2000/svg" xmlns:xlink="http://www.w3.org/1999/xlink">
    <!-- Generator: Sketch 50.2 (55047) - http://www.bohemiancoding.com/sketch -->
    <title>milk</title>
    <desc>Created with Sketch.</desc>
    <defs></defs>
    <g id="Standard-Bowel-Prep" stroke="none" stroke-width="1" fill="none" fill-rule="evenodd">
        <g id="iOS_3days" transform="translate(-45.000000, -1380.000000)">
            <g id="stop_7days-copy-2" transform="translate(44.000000, 1314.000000)">
                <g id="milk" transform="translate(1.000000, 66.000000)">
                    <circle id="Oval-4-Copy-4" fill="#4ECDC4" cx="48" cy="48" r="48"></circle>
                    <g id="Group-26" transform="translate(33.000000, 16.000000)">
                        <path d="M10.9354709,0.597614356 L19.9339118,0.0126324701 C20.4850332,-0.0231955187 20.9608497,0.394532328 20.9966776,0.945653731 C20.9983029,0.970653599 20.998988,0.995705712 20.9987317,1.02075704 L20.9761111,3.23163329 C20.9708378,3.7470287 20.5746936,4.17398919 20.0611354,4.21778564 L11.0936403,4.98253703 C10.543353,5.02946574 10.0592137,4.62141296 10.012285,4.07112563 C10.0099737,4.04402284 10.0087691,4.01683702 10.0086744,3.98963602 L10.0003493,1.59899027 C9.99850909,1.07055099 10.4081416,0.631895642 10.9354709,0.597614356 Z" id="Rectangle-8" fill="#C8CDCF"></path>
                        <path d="M16.1431673,59.9837165 L26.8665689,54.8611875 C26.9012742,54.8446089 26.9233956,54.8095953 26.9234646,54.7711335 L26.9999731,12.1023592 C27.0000721,12.0471308 26.9553809,12.0022791 26.9001525,12.00218 C26.8942012,12.0021694 26.8882608,12.00269 26.8824021,12.0037357 L16.2329662,13.9045351 C16.1853915,13.9130266 16.1506963,13.954325 16.1505379,14.0026514 L16.0000637,59.8931553 C15.9998826,59.9483835 16.0445071,59.9933016 16.0997353,59.9934827 C16.1147625,59.993532 16.1296076,59.9901939 16.1431673,59.9837165 Z" id="milk" fill="#A9B1B4"></path>
                        <path d="M0.190972611,59.9957372 L16.9195127,56.6675536 C16.9667073,56.6581642 17.0005226,56.6164938 16.9999939,56.5683772 L16.5004221,11.1010604 C16.4998153,11.0458353 16.4545546,11.0015584 16.3993295,11.0021651 C16.3935431,11.0022287 16.3877732,11.0027944 16.3820847,11.0038559 L0.000119015103,14.0607472 L0.0714599213,59.8978151 C0.0715458789,59.9530435 0.116387032,59.9977453 0.17161544,59.9976593 C0.178114962,59.9976492 0.184598017,59.9970055 0.190972611,59.9957372 Z" id="milk-copy" fill="#C8CDCF" transform="translate(8.500060, 35.499909) scale(-1, 1) translate(-8.500060, -35.499909) "></path>
                        <path d="M0.50567868,10.9233587 L10.0741262,4.16931466 C10.1192465,4.13746581 10.1816422,4.14822439 10.2134911,4.19334462 C10.2135423,4.19341715 10.2135934,4.19348974 10.2136444,4.1935624 L17.0215342,13.8930191 C17.0532628,13.938224 17.0423381,14.0005909 16.9971332,14.0323195 C16.975296,14.0476466 16.9482397,14.0536123 16.9219818,14.0488896 L0.545644373,11.1034769 C0.491288083,11.0937005 0.455148945,11.0417106 0.46492535,10.9873543 C0.469575939,10.9614973 0.484215202,10.938509 0.50567868,10.9233587 Z" id="Path-9" fill="#FFFFFF"></path>
                        <path d="M10.0984957,4.09107613 L20.9361365,3.00101465 C20.9727501,2.99733201 21.008428,3.01405548 21.0290204,3.04455256 L26.9838274,11.8635553 C27.0147333,11.9093266 27.0026825,11.9714857 26.9569113,12.0023916 C26.9460092,12.0097529 26.9337619,12.0148909 26.920871,12.0175113 L17.0610897,14.0217222 C17.0223682,14.0295932 16.9826429,14.0139255 16.9597191,13.9817415 L10.0270525,4.24858935 C9.99501156,4.20360532 10.005504,4.14116425 10.050488,4.10912332 C10.0646496,4.09903643 10.0811963,4.09281612 10.0984957,4.09107613 Z" id="Path-16" fill="#2E95B7"></path>
                    </g>
                </g>
            </g>
        </g>
    </g>
</svg>