<?xml version="1.0" encoding="UTF-8"?>
<svg width="96px" height="96px" viewBox="0 0 96 96" version="1.1" xmlns="http://www.w3.org/2000/svg" xmlns:xlink="http://www.w3.org/1999/xlink">
    <!-- Generator: Sketch 50.2 (55047) - http://www.bohemiancoding.com/sketch -->
    <title>pasta</title>
    <desc>Created with Sketch.</desc>
    <defs></defs>
    <g id="Standard-Bowel-Prep" stroke="none" stroke-width="1" fill="none" fill-rule="evenodd">
        <g id="iOS_1day" transform="translate(-159.000000, -281.000000)">
            <g id="stop_7days" transform="translate(46.000000, 215.000000)">
                <g id="pasta" transform="translate(113.000000, 66.000000)">
                    <ellipse id="Oval-4-Copy-8" fill="#4ECDC4" cx="47.7453581" cy="48" rx="47.7453581" ry="48"></ellipse>
                    <g id="Group-44" transform="translate(12.000000, 30.000000)">
                        <g id="Group-41" fill="#FFFFFF">
                            <ellipse id="Oval-13" cx="35.7567568" cy="12.7104275" rx="35.7567568" ry="12.6486486"></ellipse>
                            <path d="M37.1436148,36 C53.801717,36 71.5189577,18.4964268 71.5189577,12.5854873 C71.5189577,6.67454782 53.801717,14.5945946 37.1436148,14.5945946 C20.4855126,14.5945946 0.486486486,7.13072684 0.486486486,13.0416663 C0.486486486,18.9526058 20.4855126,36 37.1436148,36 Z" id="Oval-14"></path>
                        </g>
                        <ellipse id="Oval-19" fill="#F1EEE7" cx="36.4864865" cy="13.1351351" rx="32.5945946" ry="11.1891892"></ellipse>
                        <ellipse id="Oval-18" fill="#BDAD86" cx="36.2432432" cy="14.5945946" rx="28.4594595" ry="9.72972973"></ellipse>
                        <g id="Group-42" transform="translate(11.675676, 2.432432)">
                            <g id="Group-34" stroke-width="3">
                                <ellipse id="Oval-15" stroke="#FFE66D" cx="24.8108108" cy="11.9189189" rx="24.8108108" ry="11.9189189"></ellipse>
                                <ellipse id="Oval-15-Copy-2" stroke="#FFE66D" cx="25.5405405" cy="11.4324324" rx="19.7027027" ry="9.48648649"></ellipse>
                                <ellipse id="Oval-15-Copy" stroke="#FFEA87" cx="25.0540541" cy="12.1621622" rx="22.1351351" ry="10.7027027"></ellipse>
                                <ellipse id="Oval-15-Copy-3" stroke="#FFEA87" cx="25.2972973" cy="11.4324324" rx="16.5405405" ry="8.02702703"></ellipse>
                            </g>
                            <g id="Group-40" transform="translate(5.837838, 0.000000)">
                                <ellipse id="Oval-16" fill="#F49F0A" cx="7.05405405" cy="16.0540541" rx="2.18918919" ry="4.37837838"></ellipse>
                                <ellipse id="Oval-16-Copy" fill="#F49F0A" transform="translate(6.106834, 11.420625) rotate(46.000000) translate(-6.106834, -11.420625) " cx="6.10683448" cy="11.4206247" rx="2.85654037" ry="4.37837838"></ellipse>
                                <ellipse id="Oval-16-Copy-2" fill="#F49F0A" transform="translate(4.670280, 8.021654) rotate(46.000000) translate(-4.670280, -8.021654) " cx="4.67028042" cy="8.02165351" rx="2.18918919" ry="4.37837838"></ellipse>
                                <ellipse id="Oval-16-Copy-3" fill="#F49F0A" transform="translate(20.358668, 16.517901) rotate(145.000000) translate(-20.358668, -16.517901) " cx="20.3586675" cy="16.5179006" rx="2.18918919" ry="4.37837838"></ellipse>
                                <ellipse id="Oval-16-Copy-5" fill="#F49F0A" transform="translate(26.682992, 15.544928) rotate(145.000000) translate(-26.682992, -15.544928) " cx="26.6829918" cy="15.5449276" rx="2.18918919" ry="4.37837838"></ellipse>
                                <ellipse id="Oval-16-Copy-6" fill="#F49F0A" transform="translate(33.888691, 10.996270) rotate(145.000000) translate(-33.888691, -10.996270) " cx="33.888691" cy="10.9962699" rx="2.9539799" ry="4.82277412"></ellipse>
                                <ellipse id="Oval-16-Copy-4" fill="#F49F0A" transform="translate(14.034343, 16.031414) rotate(145.000000) translate(-14.034343, -16.031414) " cx="14.0343432" cy="16.0314141" rx="2.18918919" ry="4.37837838"></ellipse>
                                <ellipse id="Oval-16-Copy-7" fill="#D62839" transform="translate(14.901481, 10.598824) rotate(145.000000) translate(-14.901481, -10.598824) " cx="14.9014807" cy="10.5988241" rx="2.18918919" ry="2.4975333"></ellipse>
                                <ellipse id="Oval-16-Copy-8" fill="#D62839" transform="translate(20.252832, 9.625851) rotate(145.000000) translate(-20.252832, -9.625851) " cx="20.2528321" cy="9.62585117" rx="2.18918919" ry="2.4975333"></ellipse>
                                <ellipse id="Oval-16-Copy-9" fill="#D62839" transform="translate(9.550129, 3.788013) rotate(145.000000) translate(-9.550129, -3.788013) " cx="9.55012937" cy="3.78801333" rx="2.18918919" ry="2.4975333"></ellipse>
                                <ellipse id="Oval-16-Copy-28" fill="#D62839" transform="translate(10.523102, 6.706932) rotate(145.000000) translate(-10.523102, -6.706932) " cx="10.5231023" cy="6.70693225" rx="2.18918919" ry="2.4975333"></ellipse>
                                <ellipse id="Oval-16-Copy-24" fill="#D62839" transform="translate(10.476396, 9.555209) rotate(145.000000) translate(-10.476396, -9.555209) " cx="10.4763956" cy="9.55520868" rx="1.49718462" ry="1.70806089"></ellipse>
                                <ellipse id="Oval-16-Copy-25" fill="#D62839" transform="translate(10.476396, 13.447101) rotate(145.000000) translate(-10.476396, -13.447101) " cx="10.4763956" cy="13.4471006" rx="1.49718462" ry="1.70806089"></ellipse>
                                <ellipse id="Oval-16-Copy-26" fill="#D62839" transform="translate(7.557477, 9.555209) rotate(145.000000) translate(-7.557477, -9.555209) " cx="7.55747667" cy="9.55520868" rx="1.49718462" ry="1.70806089"></ellipse>
                                <ellipse id="Oval-16-Copy-27" fill="#D62839" transform="translate(17.287206, 14.420074) rotate(145.000000) translate(-17.287206, -14.420074) " cx="17.2872064" cy="14.4200735" rx="1.49718462" ry="1.70806089"></ellipse>
                                <ellipse id="Oval-16-Copy-10" fill="#D62839" transform="translate(14.414994, 3.301527) rotate(145.000000) translate(-14.414994, -3.301527) " cx="14.4149942" cy="3.30152684" rx="2.18918919" ry="2.4975333"></ellipse>
                                <ellipse id="Oval-16-Copy-14" fill="#D62839" transform="translate(13.928508, 6.220446) rotate(145.000000) translate(-13.928508, -6.220446) " cx="13.9285078" cy="6.22044576" rx="2.18918919" ry="2.4975333"></ellipse>
                                <ellipse id="Oval-16-Copy-11" fill="#D62839" transform="translate(23.905133, 8.396244) rotate(145.000000) translate(-23.905133, -8.396244) " cx="23.9051335" cy="8.39624394" rx="1.69643782" ry="1.93537861"></ellipse>
                                <ellipse id="Oval-16-Copy-15" fill="#D62839" transform="translate(20.499728, 4.504352) rotate(145.000000) translate(-20.499728, -4.504352) " cx="20.4997281" cy="4.50435205" rx="1.69643782" ry="1.93537861"></ellipse>
                                <ellipse id="Oval-16-Copy-12" fill="#D62839" transform="translate(28.283512, 10.828676) rotate(145.000000) translate(-28.283512, -10.828676) " cx="28.2835119" cy="10.8286764" rx="1.69643782" ry="1.93537861"></ellipse>
                                <ellipse id="Oval-16-Copy-23" fill="#D62839" transform="translate(22.932161, 12.774622) rotate(145.000000) translate(-22.932161, -12.774622) " cx="22.9321605" cy="12.7746223" rx="1.69643782" ry="1.93537861"></ellipse>
                                <ellipse id="Oval-16-Copy-16" fill="#D62839" transform="translate(25.364593, 4.504352) rotate(145.000000) translate(-25.364593, -4.504352) " cx="25.3645929" cy="4.50435205" rx="1.69643782" ry="1.93537861"></ellipse>
                                <ellipse id="Oval-16-Copy-18" fill="#D62839" transform="translate(23.418647, 5.477325) rotate(145.000000) translate(-23.418647, -5.477325) " cx="23.418647" cy="5.47732502" rx="1.69643782" ry="1.93537861"></ellipse>
                                <ellipse id="Oval-16-Copy-20" fill="#D62839" transform="translate(21.959188, 2.558406) rotate(145.000000) translate(-21.959188, -2.558406) " cx="21.9591875" cy="2.55840611" rx="1.69643782" ry="1.93537861"></ellipse>
                                <ellipse id="Oval-16-Copy-19" fill="#D62839" transform="translate(18.067296, 2.558406) rotate(145.000000) translate(-18.067296, -2.558406) " cx="18.0672956" cy="2.55840611" rx="1.69643782" ry="1.93537861"></ellipse>
                                <ellipse id="Oval-16-Copy-17" fill="#D62839" transform="translate(28.283512, 6.936784) rotate(145.000000) translate(-28.283512, -6.936784) " cx="28.2835119" cy="6.93678448" rx="1.69643782" ry="1.93537861"></ellipse>
                                <ellipse id="Oval-16-Copy-21" fill="#D62839" transform="translate(29.256485, 4.017866) rotate(145.000000) translate(-29.256485, -4.017866) " cx="29.2564848" cy="4.01786556" rx="1.69643782" ry="1.93537861"></ellipse>
                                <ellipse id="Oval-16-Copy-22" fill="#D62839" transform="translate(31.202431, 6.450298) rotate(145.000000) translate(-31.202431, -6.450298) " cx="31.2024308" cy="6.450298" rx="1.69643782" ry="1.93537861"></ellipse>
                                <ellipse id="Oval-16-Copy-13" fill="#D62839" transform="translate(17.580809, 6.936784) rotate(145.000000) translate(-17.580809, -6.936784) " cx="17.5808092" cy="6.93678448" rx="1.69643782" ry="1.93537861"></ellipse>
                            </g>
                        </g>
                    </g>
                </g>
            </g>
        </g>
    </g>
</svg>