<?xml version="1.0" encoding="UTF-8"?>
<svg width="96px" height="96px" viewBox="0 0 96 96" version="1.1" xmlns="http://www.w3.org/2000/svg" xmlns:xlink="http://www.w3.org/1999/xlink">
    <!-- Generator: Sketch 50.2 (55047) - http://www.bohemiancoding.com/sketch -->
    <title>pizza</title>
    <desc>Created with Sketch.</desc>
    <defs></defs>
    <g id="Standard-Bowel-Prep" stroke="none" stroke-width="1" fill="none" fill-rule="evenodd">
        <g id="iOS_1day" transform="translate(-47.000000, -281.000000)">
            <g id="stop_7days" transform="translate(46.000000, 215.000000)">
                <g id="pizza" transform="translate(1.000000, 66.000000)">
                    <ellipse id="Oval-4-Copy-7" fill="#4ECDC4" cx="47.7453581" cy="48" rx="47.7453581" ry="48"></ellipse>
                    <g transform="translate(32.000000, 19.000000)">
                        <path d="M0,3.67097678 L-4.4408921e-15,61.5420149 C-8.29747589e-15,62.0942996 0.44771525,62.5420149 1,62.5420149 C1.26420885,62.5420149 1.51768091,62.4374549 1.70504732,62.2511751 L44.0667215,20.1351945 C44.8500404,19.3564186 44.8537233,18.0900906 44.0749474,17.3067716 C44.0357843,17.2673801 43.9949972,17.2296372 43.9526921,17.1936411 C36.0773785,10.4927772 29.879315,6.40167719 25.3585015,4.92034117 C14.2522203,1.28114335 6.37697546,0.065024847 4.38099034,0.00504115808 C3.02610931,-0.0356759602 1.61392744,0.168213605 0.887569572,0.691210587 C0.327955355,1.09414771 0.0320988312,2.0874031 0,3.67097678 Z" id="Path-18" fill="#F49F0A"></path>
                        <path d="M0,7.82190716 L-7.77156117e-16,61.9513018 C3.21469843e-15,62.5035866 0.44771525,62.9513018 1,62.9513018 C1.26420885,62.9513018 1.51768091,62.8467418 1.70504732,62.6604621 L39.0459242,25.5361375 C39.427315,25.1569587 39.4405006,24.5440383 39.0757697,24.1488083 C31.9090215,16.382773 25.9806164,11.7313584 21.2905543,10.1945646 C14.2457303,7.88618547 7.47913309,6.76198055 0.990762713,6.82194987 L0.990762667,6.82194497 C0.442104568,6.82701599 -6.71941084e-17,7.27322563 0,7.82190716 Z" id="Path-18" fill="#F6B036"></path>
                        <g id="Group-27" transform="translate(0.000000, 37.770492)">
                            <path d="M0,11.1775203 L0,2.46182399 C1.25094216,0.9576216 3.13658965,0 5.24590164,0 C9.01230256,0 12.0655738,3.05327121 12.0655738,6.81967213 C12.0655738,10.586073 9.01230256,13.6393443 5.24590164,13.6393443 C3.13658965,13.6393443 1.25094216,12.6817227 1.11022302e-16,11.1775203 Z" id="Combined-Shape" fill="#D62839"></path>
                            <path d="M0.624477609,6.15603625 C0.185301073,3.45091919 1.19432478,2.09836066 3.65154874,2.09836066 C5.13157863,2.09836066 3.20747748,3.46943025 2.48513842,3.8308215 C2.106976,4.02001878 1.48675573,4.79509036 0.624477609,6.15603625 Z" id="Path-19" fill="#DD4F5D"></path>
                        </g>
                        <path d="M24.876798,39.2225061 C23.454821,37.9726741 22.557377,36.140322 22.557377,34.0983607 C22.557377,30.3319597 25.6106483,27.2786885 29.3770492,27.2786885 C31.5543845,27.2786885 33.4933968,28.2990709 34.7419819,29.8877314 L34.4767773,29.6225268 L24.876798,39.2225061 Z" id="Combined-Shape" fill="#D62839"></path>
                        <path d="M5.44836437,3.91465327 C8.9769202,3.33332702 11.3598304,3.04486931 12.5970948,3.04928012 C13.8302025,3.05367612 16.0675354,3.35661286 19.3090938,3.95809036 L19.3090966,3.95807535 C20.3217629,4.14597756 21.0856138,4.98489238 21.1780468,6.01068787 L21.1780468,6.01068787 C21.2407156,6.70616895 20.7277199,7.32077086 20.0322388,7.38343968 C19.9044894,7.394951 19.775732,7.38695636 19.6503878,7.35973024 C16.1923067,6.60863077 13.8134946,6.23866151 12.5139446,6.24985381 C11.2161512,6.26103098 8.75472935,6.67163171 5.12967924,7.481656 L5.12968174,7.48166715 C4.39995188,7.64472667 3.67620309,7.18534959 3.51314358,6.45561973 C3.48394319,6.3249411 3.47429034,6.19065354 3.48450024,6.05714203 L3.48450024,6.05714203 C3.5671962,4.97575339 4.37823953,4.09092817 5.44836001,3.91462683 Z" id="Rectangle-9" fill="#F6B036" transform="translate(12.331894, 5.281878) rotate(13.000000) translate(-12.331894, -5.281878) "></path>
                        <g id="Group-33" transform="translate(1.049180, 12.590164)">
                            <circle id="Oval-12" fill="#D62839" cx="6.81967213" cy="6.81967213" r="6.81967213"></circle>
                            <path d="M2.0868627,7.08003868 C1.48322249,3.36190419 2.87010734,1.50283695 6.24751723,1.50283695 C8.28179156,1.50283695 5.63714931,3.38734732 4.64430733,3.88407304 C4.12452993,4.14412129 3.27204838,5.20944317 2.0868627,7.08003868 Z" id="Path-19" fill="#DD4F5D"></path>
                        </g>
                    </g>
                </g>
            </g>
        </g>
    </g>
</svg>