<?xml version="1.0" encoding="UTF-8"?>
<svg width="200px" height="200px" viewBox="0 0 200 200" version="1.1" xmlns="http://www.w3.org/2000/svg" xmlns:xlink="http://www.w3.org/1999/xlink">
    <!-- Generator: Sketch 50.2 (55047) - http://www.bohemiancoding.com/sketch -->
    <title>polyethylene_glycol</title>
    <desc>Created with Sketch.</desc>
    <defs></defs>
    <g id="Standard-Bowel-Prep" stroke="none" stroke-width="1" fill="none" fill-rule="evenodd">
        <g id="iOS_1day" transform="translate(-107.000000, -1432.000000)">
            <g id="Group-2-Copy" transform="translate(4.000000, 1294.000000)">
                <g id="stop_7days-copy" transform="translate(42.000000, 72.000000)">
                    <g id="polyethylene_glycol" transform="translate(61.000000, 66.000000)">
                        <circle id="Oval-4-Copy-5" fill="#4ECDC4" cx="100" cy="100" r="100"></circle>
                        <g id="Group-66" transform="translate(32.000000, 52.000000)">
                            <g id="bottle">
                                <g id="Group-52" transform="translate(0.000000, 21.647059)" fill="#FFFFFF">
                                    <path d="M2,11.7174045 L46.000145,11.7174045 C47.1047145,11.7174045 48.000145,12.612835 48.000145,13.7174045 L48.000145,68.3531521 C48.000145,71.6668606 45.3138535,74.3531521 42.000145,74.3531521 L6,74.3531521 C2.6862915,74.3531521 -3.14690143e-15,71.6668606 -3.55271368e-15,68.3531521 L-3.55271368e-15,13.7174045 C-3.68798443e-15,12.612835 0.8954305,11.7174045 2,11.7174045 Z" id="Rectangle-25"></path>
                                    <path d="M0.757912694,12.0435223 L10.1261581,4.10510989 L10.1261581,0.0707990062 L38.1798459,0.0707990062 L38.1798459,4.10510989 L47.2897561,12.0529154 C47.7059213,12.4159925 47.7489576,13.0476932 47.3858805,13.4638584 C47.1959746,13.6815318 46.921217,13.8064491 46.6323468,13.8064491 L1.40439748,13.8064491 C0.852112733,13.8064491 0.404397482,13.3587339 0.404397482,12.8064491 C0.404397482,12.5125471 0.533686918,12.2335255 0.757912694,12.0435223 Z" id="Path-27"></path>
                                </g>
                                <rect id="Rectangle-22" fill="#7C78BA" x="3.76470588" y="42.3529412" width="41.4117647" height="48.9411765" rx="4"></rect>
                                <g id="Group-64" transform="translate(6.877828, 0.000000)">
                                    <rect id="Rectangle-15" fill="#7C78BA" x="0" y="0" width="34.1719457" height="22.0090498" rx="4"></rect>
                                    <g id="Group-57" transform="translate(5.212670, 0.000000)" fill="#9390C6" stroke="#7C78BA">
                                        <rect id="Rectangle-19" x="7.45022624" y="0.5" width="1.8959276" height="21.0090498"></rect>
                                        <rect id="Rectangle-19-Copy" x="14.4004525" y="0.5" width="1.8959276" height="21.0090498"></rect>
                                        <rect id="Rectangle-19-Copy-3" x="21.3506787" y="0.5" width="1.8959276" height="21.0090498"></rect>
                                        <rect id="Rectangle-19-Copy-2" x="0.5" y="0.5" width="1.8959276" height="21.0090498"></rect>
                                    </g>
                                </g>
                            </g>
                            <g id="Group-65" transform="translate(56.000000, 0.000000)">
                                <path d="M34.3529412,96 C53.3255467,96 68.7058824,79.9875958 68.7058824,60.2352941 C68.7058824,50.3648289 64.3216465,39.5639579 58.1112953,33.0927044 C51.8937895,26.6139957 43.8447051,24.4705882 34.3529412,24.4705882 C15.3803357,24.4705882 0,40.4829925 0,60.2352941 C0,79.9875958 15.3803357,96 34.3529412,96 Z" id="Oval-21" fill="#EEFAF9"></path>
                                <path d="M3.76470588,46.1176471 C13.5027663,30.0663506 17.7137542,19.8112356 16.3976698,15.3523019 C14.4235433,8.66390149 13.140743,6.79420428 10.1987057,6.79420428 C7.25666827,6.79420428 11.8036676,2.82352941 16.3976698,2.82352941 C20.9916721,2.82352941 35.5372972,4.60100263 39.3112777,6.79420428 C43.0852582,8.98740594 57.0523846,2.06340203 58.5376799,5.52540398 C60.0229751,8.98740594 55.1946809,12.0624994 56.315522,22.3159333 C57.0021692,28.597369 56.8285748,29.7551968 60.5386301,37.9364219 C64.2486854,46.1176471 65.5636319,46.1176471 64.6729663,46.1176471 C62.5657363,46.1176471 42.2629828,46.1176471 3.76470588,46.1176471 Z" id="Path-26" fill="#EEFAF9"></path>
                                <path d="M52.8911147,6.57485443 C62.2269398,-0.978449305 69.3014157,-2.02373093 74.1145426,3.43900955 C81.3342329,11.6331203 80.4926375,24.7885952 78.9433245,29.2525309 C77.3940116,33.7164667 69.4768606,46.7841918 70.2029323,53.7126594 C70.6869801,58.3316377 69.4345218,60.083763 66.4455574,58.9690352 C64.7779457,48.8496324 62.7836847,43.4477246 60.4627744,42.7633119 C56.9814088,41.7366928 69.3467615,42.9070493 73.241637,24.1614262 C75.8382207,11.6643441 72.9978137,5.21410412 64.7204159,4.81070616 C56.554583,7.94339758 51.6871132,16.2221818 50.1180065,29.6470588 C48.5488998,43.0719358 48.5488998,43.3655377 50.1180065,30.5278642 L52.8911147,6.57485443 Z" id="Path-28" fill="#EEFAF9"></path>
                                <path d="M33.8823529,93.1764706 C42.9868111,93.1764706 53.9127532,88.9839626 59.4353403,81.2397627 C64.002321,74.8355883 64,65.7788965 64,56.6469424 C64,52.3455869 62.051447,47.6761474 57.6549357,44.9969635 C51.6755644,41.3532028 42.5334403,39.5572257 33.4484758,39.5297324 C24.0821462,39.5013875 14.7765714,41.352764 9.0601908,44.9969635 C5.2762813,47.4092103 3.76470588,52.6546857 3.76470588,56.6469424 C3.76470588,63.5296022 3.82880934,71.9202062 6.55717692,77.416008 C11.8262991,88.0296993 22.92341,93.1764706 33.8823529,93.1764706 Z" id="Oval-22" fill="#ECDD7B"></path>
                                <path d="M32.9411765,52.7058824 C46.9757066,52.7058824 60.3351791,51.467165 60.3351791,48.0884818 C60.3351791,44.7097987 46.9757066,39.775669 32.9411765,39.775669 C18.9066464,39.775669 7.07701239,43.9504354 7.07701239,47.3291186 C7.07701239,50.7078018 18.9066464,52.7058824 32.9411765,52.7058824 Z" id="Oval-23" fill="#D7C970"></path>
                            </g>
                        </g>
                    </g>
                </g>
            </g>
        </g>
    </g>
</svg>