<?xml version="1.0" encoding="UTF-8"?>
<svg width="96px" height="96px" viewBox="0 0 96 96" version="1.1" xmlns="http://www.w3.org/2000/svg" xmlns:xlink="http://www.w3.org/1999/xlink">
    <!-- Generator: Sketch 50.2 (55047) - http://www.bohemiancoding.com/sketch -->
    <title>red_purple_liquids</title>
    <desc>Created with Sketch.</desc>
    <defs></defs>
    <g id="Standard-Bowel-Prep" stroke="none" stroke-width="1" fill="none" fill-rule="evenodd">
        <g id="iOS_3days" transform="translate(-269.000000, -1380.000000)">
            <g id="stop_7days-copy-2" transform="translate(44.000000, 1314.000000)">
                <g id="red_purple_liquids" transform="translate(225.000000, 66.000000)">
                    <ellipse id="Oval-4-Copy-5" fill="#4ECDC4" cx="47.7453581" cy="48" rx="47.7453581" ry="48"></ellipse>
                    <g id="Group-25" transform="translate(30.000000, 16.000000)">
                        <g id="Group-23" transform="translate(0.000000, 3.490909)" fill="#EEFAF9">
                            <path d="M0.0627595345,0.570890951 L4.15044235,58.249339 C12.9777867,60.0476785 21.75556,60.0476785 30.4837624,58.249339" id="Path-13"></path>
                            <path d="M4.65454545,0.447709805 L8.5363507,58.249339 C17.363695,60.0476785 26.1414684,60.0476785 34.8696708,58.249339" id="Path-13-Copy" transform="translate(19.762108, 30.022902) scale(-1, 1) translate(-19.762108, -30.022902) "></path>
                            <polygon id="Rectangle-6" points="1.23120282 2.32727273 32.5818182 2.32727273 29.3815992 33.6877532 4.38704326 33.6877532"></polygon>
                        </g>
                        <path d="M0.345134002,4.40488502 L34.5353368,4.65454545 L32.4793528,9.0931929 L1.68109144,8.14545455 C1.34647195,7.26278828 1.07450869,6.57157955 0.865201673,6.07182834 C0.655894656,5.57207714 0.482538765,5.01642937 0.345134002,4.40488502 Z" id="Rectangle-7" fill="#EEFAF9"></path>
                        <ellipse id="Oval-11" stroke="#F1EEE7" fill="#F1FAFA" cx="17.4545455" cy="4.07272727" rx="17.4545455" ry="4.07272727"></ellipse>
                        <g id="Group-24" transform="translate(3.490909, 10.472727)">
                            <g id="Group-23-Copy" transform="translate(0.000000, 3.490909)" fill="#9792E3">
                                <path d="M0,0 L3.32707351,46.6293944 C10.4032406,48.0689898 17.4396706,48.0689898 24.4363636,46.6293944" id="Path-13"></path>
                                <path d="M3.49090909,0 L6.8179826,46.6293944 C13.8941497,48.0689898 20.9305797,48.0689898 27.9272727,46.6293944" id="Path-13-Copy" transform="translate(15.709091, 23.854545) scale(-1, 1) translate(-15.709091, -23.854545) "></path>
                                <polygon id="Rectangle-6" points="1.16363636 2.32727273 26.7636364 2.32727273 24.1504307 30.2545455 3.74060381 30.2545455"></polygon>
                            </g>
                            <ellipse id="Oval-11-Copy" fill="#A9A5E8" cx="13.9636364" cy="4.07272727" rx="13.9636364" ry="4.07272727"></ellipse>
                        </g>
                    </g>
                </g>
            </g>
        </g>
    </g>
</svg>