<?xml version="1.0" encoding="UTF-8"?>
<svg width="200px" height="200px" viewBox="0 0 200 200" version="1.1" xmlns="http://www.w3.org/2000/svg" xmlns:xlink="http://www.w3.org/1999/xlink">
    <!-- Generator: Sketch 50.2 (55047) - http://www.bohemiancoding.com/sketch -->
    <title>remainder_of_mixture</title>
    <desc>Created with Sketch.</desc>
    <defs></defs>
    <g id="Standard-Bowel-Prep" stroke="none" stroke-width="1" fill="none" fill-rule="evenodd">
        <g id="iOS_dayof" transform="translate(-107.000000, -281.000000)">
            <g id="stop_7days-copy" transform="translate(46.000000, 215.000000)">
                <g id="remainder_of_mixture" transform="translate(61.000000, 66.000000)">
                    <circle id="Oval-4-Copy-10" fill="#4ECDC4" cx="100" cy="100" r="100"></circle>
                    <g id="Group-2" transform="translate(43.000000, 52.000000)">
                        <g id="Group-3-Copy-2">
                            <g id="Group-50">
                                <g id="Group-25" transform="translate(0.000000, 0.653132)">
                                    <g id="Group-23" transform="translate(0.000000, 5.130056)" fill="#E7F3F7">
                                        <path d="M0.0873847818,0.838951238 L5.77897051,85.6001571 C18.0699405,88.2429019 30.2918892,88.2429019 42.4448165,85.6001571" id="Path-13"></path>
                                        <path d="M6.48087087,0.657930721 L11.8857979,85.6001571 C24.1767679,88.2429019 36.3987166,88.2429019 48.5516439,85.6001571" id="Path-13-Copy" transform="translate(27.516257, 44.120073) scale(-1, 1) translate(-27.516257, -44.120073) "></path>
                                        <polygon id="Rectangle-6" points="1.71429553 3.42003728 45.3660961 3.42003728 40.9101924 49.5057458 6.1084076 49.5057458"></polygon>
                                    </g>
                                    <path d="M0.480555818,6.47318675 L48.0861258,6.84007456 L45.2234259,13.3628768 L2.34070903,11.9701305 C1.87479334,10.6730107 1.49611861,9.65724678 1.20468483,8.92283876 C0.913251059,8.18843074 0.671874721,7.37188007 0.480555818,6.47318675 Z" id="Rectangle-7" fill="#E7F3F7"></path>
                                    <ellipse id="Oval-11" stroke="#F1EEE7" fill="#E7F3F7" cx="24.3032658" cy="5.98506524" rx="24.3032658" ry="5.98506524"></ellipse>
                                    <g id="Group-24" transform="translate(4.860653, 15.390168)">
                                        <g id="Group-23-Copy" transform="translate(0.000000, 5.130056)" fill="#ECDD7B">
                                            <path d="M0,0 L4.63253265,68.5240991 C14.485208,70.6396526 24.2825544,70.6396526 34.0245721,68.5240991" id="Path-13"></path>
                                            <path d="M4.86065315,0 L9.4931858,68.5240991 C19.3458611,70.6396526 29.1432076,70.6396526 38.8852252,68.5240991" id="Path-13-Copy" transform="translate(21.872939, 35.055382) scale(-1, 1) translate(-21.872939, -35.055382) "></path>
                                            <polygon id="Rectangle-6" points="1.62021772 3.42003728 37.2650075 3.42003728 33.6264462 44.4604846 5.20832174 44.4604846"></polygon>
                                        </g>
                                        <ellipse id="Oval-11-Copy" fill="#D7C970" cx="19.4426126" cy="5.98506524" rx="19.4426126" ry="5.98506524"></ellipse>
                                    </g>
                                </g>
                            </g>
                        </g>
                        <g id="Group-3-Copy-3" transform="translate(64.000000, 0.000000)">
                            <g id="Group-50">
                                <g id="Group-25" transform="translate(0.000000, 0.653132)">
                                    <g id="Group-23" transform="translate(0.000000, 5.130056)" fill="#E7F3F7">
                                        <path d="M0.0873847818,0.838951238 L5.77897051,85.6001571 C18.0699405,88.2429019 30.2918892,88.2429019 42.4448165,85.6001571" id="Path-13"></path>
                                        <path d="M6.48087087,0.657930721 L11.8857979,85.6001571 C24.1767679,88.2429019 36.3987166,88.2429019 48.5516439,85.6001571" id="Path-13-Copy" transform="translate(27.516257, 44.120073) scale(-1, 1) translate(-27.516257, -44.120073) "></path>
                                        <polygon id="Rectangle-6" points="1.71429553 3.42003728 45.3660961 3.42003728 40.9101924 49.5057458 6.1084076 49.5057458"></polygon>
                                    </g>
                                    <path d="M0.480555818,6.47318675 L48.0861258,6.84007456 L45.2234259,13.3628768 L2.34070903,11.9701305 C1.87479334,10.6730107 1.49611861,9.65724678 1.20468483,8.92283876 C0.913251059,8.18843074 0.671874721,7.37188007 0.480555818,6.47318675 Z" id="Rectangle-7" fill="#E7F3F7"></path>
                                    <ellipse id="Oval-11" stroke="#F1EEE7" fill="#E7F3F7" cx="24.3032658" cy="5.98506524" rx="24.3032658" ry="5.98506524"></ellipse>
                                    <g id="Group-24" transform="translate(4.860653, 15.390168)">
                                        <g id="Group-23-Copy" transform="translate(0.000000, 5.130056)" fill="#ECDD7B">
                                            <path d="M0,0 L4.63253265,68.5240991 C14.485208,70.6396526 24.2825544,70.6396526 34.0245721,68.5240991" id="Path-13"></path>
                                            <path d="M4.86065315,0 L9.4931858,68.5240991 C19.3458611,70.6396526 29.1432076,70.6396526 38.8852252,68.5240991" id="Path-13-Copy" transform="translate(21.872939, 35.055382) scale(-1, 1) translate(-21.872939, -35.055382) "></path>
                                            <polygon id="Rectangle-6" points="1.62021772 3.42003728 37.2650075 3.42003728 33.6264462 44.4604846 5.20832174 44.4604846"></polygon>
                                        </g>
                                        <ellipse id="Oval-11-Copy" fill="#D7C970" cx="19.4426126" cy="5.98506524" rx="19.4426126" ry="5.98506524"></ellipse>
                                    </g>
                                </g>
                            </g>
                        </g>
                    </g>
                </g>
            </g>
        </g>
    </g>
</svg>