<?xml version="1.0" encoding="UTF-8"?>
<svg width="96px" height="96px" viewBox="0 0 96 96" version="1.1" xmlns="http://www.w3.org/2000/svg" xmlns:xlink="http://www.w3.org/1999/xlink">
    <!-- Generator: Sketch 50.2 (55047) - http://www.bohemiancoding.com/sketch -->
    <title>seeds_nuts</title>
    <desc>Created with Sketch.</desc>
    <defs></defs>
    <g id="Standard-Bowel-Prep" stroke="none" stroke-width="1" fill="none" fill-rule="evenodd">
        <g id="iOS_3days" transform="translate(-159.000000, -281.000000)">
            <g id="stop_7days" transform="translate(46.000000, 215.000000)">
                <g id="seeds_nuts" transform="translate(113.000000, 66.000000)">
                    <ellipse id="Oval-4" fill="#4ECDC4" cx="47.7453581" cy="48" rx="47.7453581" ry="48"></ellipse>
                    <g id="Group-7" transform="translate(7.000000, 26.000000)">
                        <g id="Group-18">
                            <path d="M45.6352648,4.73923496 C33.0754266,9.05049481 26.7955075,18.0763623 26.7955075,31.8168373 C26.7955075,52.4275498 49.5884619,41.2496306 51.6428598,33.0904256 C51.8364208,32.3216827 57.5292313,21.848453 54.2499132,12.6374555 C51.1926688,4.05022168 48.3211193,1.4174815 45.6352648,4.73923496 Z" id="Path-11" fill="#BDAD86"></path>
                            <path d="M18.8397573,1.38979652 C6.2799191,5.70105637 5.85393238e-16,14.7269238 0,28.4673988 C4.08522116e-18,49.0781114 22.7929544,37.9001922 24.8473522,29.7409871 C25.0409132,28.9722442 30.7337238,18.4990146 27.4544057,9.28801706 C24.3971613,0.700783242 21.5256118,-1.93195694 18.8397573,1.38979652 Z" id="Path-11-Copy" fill="#654C4F" transform="translate(14.235113, 20.096631) scale(-1, 1) translate(-14.235113, -20.096631) "></path>
                            <ellipse id="Oval-6" fill="#CFC3A7" transform="translate(8.373596, 22.608709) scale(-1, 1) rotate(21.000000) translate(-8.373596, -22.608709) " cx="8.3735961" cy="22.6087095" rx="3.34943844" ry="9.21095571"></ellipse>
                            <ellipse id="Oval-6" fill="#CFC3A7" transform="translate(36.843823, 22.608709) rotate(21.000000) translate(-36.843823, -22.608709) " cx="36.8438228" cy="22.6087095" rx="3.34943844" ry="9.21095571"></ellipse>
                        </g>
                        <g id="Group-9" transform="translate(57.000000, 18.000000)">
                            <path d="M10.2439701,10 C5.80862669,11.1490034 2.65500315,13.0967431 0.783099501,15.8432191 C-2.02475597,19.9629329 3.4653125,20.7826217 5.51353481,19.3413409 C7.56175711,17.9000601 11.1564313,14.8095604 11.8417734,12.4047802 C12.2986681,10.8015934 11.766067,10 10.2439701,10 Z" id="Path-6" fill="#ECE8DF"></path>
                            <path d="M18.3290352,14 C14.3728579,15.415624 11.5041565,17.5160474 9.72293103,20.3012702 C7.05109286,24.4791045 12.5026304,24.6195605 14.4516333,23.1579463 C16.4006362,21.6963321 19.1972952,18.877413 19.8494381,16.4387065 C20.2842001,14.8129022 19.7773991,14 18.3290352,14 Z" id="Path-6-Copy-2" fill="#ECE8DF" transform="translate(14.500000, 19.000000) rotate(31.000000) translate(-14.500000, -19.000000) "></path>
                            <path d="M12.5265735,0 C7.9572849,0.87818971 4.71539813,2.75792274 2.80091315,5.6391991 C-0.0708143349,9.96111363 5.54414009,10.8210337 7.63895456,9.30901309 C9.73376904,7.79699244 13.1166193,5.56565274 13.8175513,3.04284296 C14.2848392,1.36096977 13.8545133,0.346688782 12.5265735,0 Z" id="Path-6-Copy" fill="#ECE8DF"></path>
                            <path d="M20.7721957,6 C17.4518516,7.31400862 14.8469726,9.36479371 12.9575588,12.1523553 C10.1234382,16.3336976 14.2216162,16.5361766 16.9433583,15.4223236 C19.6651003,14.3084707 23.2020291,11.3727162 23.893782,8.9319619 C24.3549505,7.30479239 23.3144218,6.32747175 20.7721957,6 Z" id="Path-6-Copy-3" fill="#ECE8DF" transform="translate(18.000000, 11.000000) rotate(261.000000) translate(-18.000000, -11.000000) "></path>
                            <ellipse id="Oval-7" fill="#F1EEE7" transform="translate(4.500000, 13.000000) rotate(53.000000) translate(-4.500000, -13.000000) " cx="4.5" cy="13" rx="1" ry="3"></ellipse>
                            <ellipse id="Oval-7-Copy" fill="#F1EEE7" transform="translate(6.500000, 3.500000) rotate(53.000000) translate(-6.500000, -3.500000) " cx="6.5" cy="3.5" rx="1" ry="2.5"></ellipse>
                            <ellipse id="Oval-7-Copy-2" fill="#F1EEE7" transform="translate(19.500000, 8.500000) rotate(-41.000000) translate(-19.500000, -8.500000) " cx="19.5" cy="8.5" rx="1" ry="2.5"></ellipse>
                            <ellipse id="Oval-7-Copy-3" fill="#F1EEE7" transform="translate(12.500000, 18.000000) rotate(-100.000000) translate(-12.500000, -18.000000) " cx="12.5" cy="18" rx="1" ry="3"></ellipse>
                        </g>
                    </g>
                </g>
            </g>
        </g>
    </g>
</svg>