<?xml version="1.0" encoding="UTF-8"?>
<svg width="96px" height="96px" viewBox="0 0 96 96" version="1.1" xmlns="http://www.w3.org/2000/svg" xmlns:xlink="http://www.w3.org/1999/xlink">
    <!-- Generator: Sketch 50.2 (55047) - http://www.bohemiancoding.com/sketch -->
    <title>tomato</title>
    <desc>Created with Sketch.</desc>
    <defs></defs>
    <g id="Standard-Bowel-Prep" stroke="none" stroke-width="1" fill="none" fill-rule="evenodd">
        <g id="iOS_3days" transform="translate(-271.000000, -281.000000)">
            <g id="stop_7days" transform="translate(46.000000, 215.000000)">
                <g id="tomato" transform="translate(225.000000, 66.000000)">
                    <ellipse id="Oval-4-Copy" fill="#4ECDC4" cx="47.7453581" cy="48" rx="47.7453581" ry="48"></ellipse>
                    <g id="Group-19" transform="translate(16.000000, 16.000000)">
                        <path d="M15.7975344,10.5031459 C7.03924764,10.5031459 1.97827023,16.9484056 0.614602142,29.8389249 C-0.749065947,42.7294443 4.80518524,52.776041 17.2773557,59.9787152 C29.7950648,65.0915654 40.5414685,64.808058 49.5165667,59.1281931 C62.9792141,50.6083957 63.7738738,39.3695687 63.7738738,36.1204799 C63.7738738,32.8713911 64.1420085,13.8261545 49.5165667,10.5031459 C34.8911249,7.18013729 31.811394,9.28854785 31.811394,9.28854785 C31.811394,9.28854785 28.2370084,8.80899846 21.9143926,9.28854785 C20.6522582,9.38427655 18.6133055,9.78914256 15.7975344,10.5031459 Z" id="Path-8" fill="#D62839"></path>
                        <path d="M23.5496534,2.01642882 C24.5563711,0.125309143 25.7660011,-0.347470776 27.1785434,0.598089062 C29.2973568,2.01642882 31.6426134,7.91793627 31.6426134,8.68968498 C31.6426134,9.46143369 40.3429462,5.81958462 48.2282195,9.72504913 C56.1134929,13.6305136 34.2620575,7.11344878 35.2476314,12.4287273 C36.2332053,17.7440059 42.7408469,17.7622371 39.4096752,26.6020507 C36.8501241,33.394242 38.232649,23.3485572 34.7689136,19.0004917 C33.4384979,17.3304061 32.1304326,15.5130922 30.1073007,14.3442306 C27.8825056,13.0588583 23.4544102,15.9697637 21.8354227,16.1605834 C19.1456196,16.4776134 17.1644818,18.3596379 15.8920094,21.806657 C13.7429176,19.3363401 16.2954656,16.4204072 23.5496534,13.0588583 C27.1785434,11.3772515 24.6742339,12.6233288 24.7025967,12.4287273 C24.8191305,11.6291698 13.8054417,10.9217161 13.0975809,10.9217161 C12.2174364,10.9217161 23.1598971,6.45765387 28.5183703,8.68968498 C30.7002173,9.59851668 28.5183703,8.68968498 28.5183703,6.92307955 C28.5183703,5.92628114 26.8621314,4.2907309 23.5496534,2.01642882 Z" id="Path-12" fill="#499F68"></path>
                    </g>
                </g>
            </g>
        </g>
    </g>
</svg>